<svg width="284" height="248" viewBox="0 0 284 248" fill="none" xmlns="http://www.w3.org/2000/svg">
<path d="M107.802 234.386C92.6549 239.443 77.3612 241.779 61.0481 238.859C42.8654 235.603 27.0944 220.942 18.1832 206.323C14.8722 200.892 12.2363 194.824 12.5807 188.571C13.3822 174.127 27.8665 172.512 40.1614 174.849C47.0921 176.163 53.4559 179.153 59.7475 182.116C70.193 187.037 82.4458 189.457 91.8105 196.278C94.9529 198.574 97.3128 201.332 100.964 203.002C106.644 205.602 113.128 206.829 118.962 209.195C123.943 211.226 129.511 214.566 129.518 219.677C129.519 224.918 123.714 228.259 118.614 230.345C115.004 231.832 111.41 233.188 107.802 234.386Z" fill="url(#paint0_linear_32_521)"/>
<path d="M52.0502 48.0645C76.8632 13.6129 128.172 -0.220151 169.761 12.7329C189.816 18.9823 206.623 31.9951 222.125 45.5035C235.789 57.4094 249.045 70.251 258.377 85.5568C264.749 96.0042 269.309 108.528 272.529 120.219C277.344 137.725 272.972 160.281 248.953 158.629C243.317 158.241 238.442 156.332 233.171 154.662C228.908 153.308 224.73 154.12 220.304 153.459C209.162 151.796 198.429 147.932 188.28 143.405C167.596 134.172 148.697 121.627 127.425 113.536C109.993 106.914 91.3769 103.495 72.5809 103.463C64.6513 103.451 56.3136 103.974 49.2204 100.633C31.7375 92.3921 39.5994 70.1702 46.1287 57.6695C47.8585 54.3397 49.8373 51.13 52.0502 48.0645V48.0645Z" fill="url(#paint1_linear_32_521)"/>
<path d="M246.597 53.2644C250.682 56.7502 266.732 66.2663 267.041 55.0991C267.114 52.3171 265.775 49.6158 263.952 47.5785C261.867 45.24 259.502 44.0133 257.874 41.2888C255.881 37.9992 253.613 34.9075 251.099 32.0537C245.959 26.1138 239.958 20.6255 232.676 18.1802C227.569 16.4671 218.922 16.8979 216.496 23.0648C212.962 32.0419 228.074 33.6868 232.683 36.9584C237.057 40.0551 239.534 45.376 242.999 49.6048C244.094 50.9381 245.298 52.1632 246.597 53.2644V53.2644Z" fill="url(#paint2_linear_32_521)"/>
<path d="M171.059 42.3453C179.712 47.145 186.202 54.3292 194.091 60.1151C207.225 69.7466 225.228 71.717 240.29 78.415C255.648 85.2491 267.245 95.8698 272.488 111.177C279.262 130.935 279.906 154.432 274.151 174.745C267.813 197.105 252.929 211.957 231.168 221.862C209.419 231.761 185.326 236.38 161.296 237.334C158.977 237.427 156.662 237.478 154.338 237.492C102.135 237.778 32.6502 220.466 14.8773 167.631C14.7144 167.148 14.5583 166.666 14.4017 166.176C12.5704 160.29 11.4936 154.218 11.1944 148.09C10.0765 126.368 14.1118 102.391 22.1954 82.0265C27.6323 68.3165 39.3397 56.7241 51.6763 48.4643C69.009 36.8604 90.1575 33.8989 111.206 32.5067C126.793 31.4763 144.323 31.0998 159.063 36.7169C163.205 38.308 167.215 40.1894 171.059 42.3453Z" fill="url(#paint3_linear_32_521)"/>
<path d="M75.1994 69.4278C75.1994 69.4278 126.747 138.255 139.642 143.946C152.541 149.641 168.71 148.359 170.124 154.961C171.538 161.567 143.053 150.394 147.597 160.584C152.141 170.778 169.851 182.412 169.933 192.674C170.02 202.94 141.754 170.641 141.754 170.641C141.754 170.641 168.386 200.192 159.568 200.891C150.745 201.589 127.935 172.698 127.935 172.698C127.935 172.698 153.451 210.598 144.992 207.136C136.537 203.675 58.12 112.994 46.0273 103.398C33.9346 93.8063 75.1994 69.4278 75.1994 69.4278Z" fill="#E27B5A"/>
<path d="M225.152 86.135C225.152 86.135 166.358 148.868 152.913 153.107C139.467 157.343 123.539 154.292 121.406 160.697C119.276 167.105 148.815 159.137 143.177 168.769C137.542 178.397 118.664 188.011 117.452 198.204C116.243 208.394 147.883 179.405 147.883 179.405C147.883 179.405 118.164 205.844 126.853 207.508C135.546 209.176 161.393 182.971 161.393 182.971C161.393 182.971 131.865 217.835 140.651 215.325C149.437 212.814 237.342 131.319 250.413 123.113C263.488 114.908 225.152 86.135 225.152 86.135Z" fill="#FFCEB0"/>
<path d="M175.098 129.694C175.098 129.694 193.182 163.936 209.806 167.579C226.426 171.223 262.334 138.719 270.169 122.619C278.007 106.522 239.808 57.8091 231.634 50.8026C219.824 49.361 166.715 99.1715 175.098 129.694Z" fill="#FB4C47"/>
<path d="M62.8948 36.2059C62.8948 36.2059 122.37 94.8217 119.552 110.041C116.737 125.264 94.0268 143.498 75.7111 149.47C57.3953 155.439 17.3533 131.395 17.3533 113.861C14.4334 84.0833 29.6148 53.1381 62.8948 36.2059Z" fill="#128E5A"/>
<defs>
<linearGradient id="paint0_linear_32_521" x1="11.2362" y1="190.565" x2="25.3069" y2="242.422" gradientUnits="userSpaceOnUse">
<stop stop-color="#FFD0D0"/>
<stop offset="1" stop-color="#FFF8F8"/>
</linearGradient>
<linearGradient id="paint1_linear_32_521" x1="304.773" y1="53.083" x2="130.001" y2="10.248" gradientUnits="userSpaceOnUse">
<stop stop-color="#FFF8F8"/>
<stop offset="1" stop-color="#FFD0D0"/>
</linearGradient>
<linearGradient id="paint2_linear_32_521" x1="267.458" y1="54.9033" x2="208.268" y2="28.0699" gradientUnits="userSpaceOnUse">
<stop stop-color="#FFD0D0"/>
<stop offset="1" stop-color="#FFF7F7"/>
</linearGradient>
<linearGradient id="paint3_linear_32_521" x1="253.838" y1="215.042" x2="18.7176" y2="70.5247" gradientUnits="userSpaceOnUse">
<stop stop-color="#FFCFCF"/>
<stop offset="1" stop-color="#FFF8F8"/>
</linearGradient>
</defs>
</svg>
