<svg width="275" height="254" viewBox="0 0 275 254" fill="none" xmlns="http://www.w3.org/2000/svg">
<path d="M104.309 240.717C89.6529 245.91 74.8547 248.309 59.0701 245.31C41.4765 241.966 26.2165 226.91 17.594 211.895C14.3903 206.318 11.8398 200.086 12.1731 193.665C12.9485 178.83 26.9636 177.172 38.8602 179.571C45.5663 180.921 51.7239 183.992 57.8117 187.035C67.9187 192.089 79.7746 194.574 88.8359 201.58C91.8765 203.937 94.1599 206.77 97.693 208.485C103.189 211.155 109.463 212.416 115.108 214.846C119.927 216.931 125.314 220.361 125.322 225.61C125.322 230.993 119.706 234.424 114.771 236.567C111.278 238.094 107.8 239.486 104.309 240.717Z" fill="url(#paint0_linear_32_618)"/>
<path d="M50.3637 49.3625C74.3729 13.9802 124.019 -0.226478 164.261 13.0765C183.666 19.4946 199.928 32.8589 214.928 46.7323C228.15 58.9598 240.976 72.1483 250.006 87.8674C256.171 98.5971 260.584 111.459 263.7 123.466C268.358 141.445 264.127 164.61 240.887 162.913C235.434 162.515 230.716 160.555 225.617 158.839C221.491 157.448 217.449 158.283 213.166 157.603C202.386 155.896 192 151.927 182.18 147.279C162.166 137.796 143.879 124.912 123.297 116.602C106.429 109.801 88.4162 106.29 70.2292 106.258C62.5566 106.245 54.489 106.782 47.6256 103.351C30.7092 94.8875 38.3164 72.0652 44.6341 59.2269C46.3079 55.8072 48.2226 52.5107 50.3637 49.3625V49.3625Z" fill="url(#paint1_linear_32_618)"/>
<path d="M238.61 54.7033C242.563 58.2833 258.093 68.0565 258.392 56.5876C258.462 53.7304 257.166 50.9562 255.403 48.8638C253.385 46.4622 251.097 45.2023 249.521 42.4043C247.593 39.0258 245.399 35.8506 242.966 32.9197C237.992 26.8193 232.186 21.1828 225.14 18.6715C220.198 16.9121 211.832 17.3546 209.484 23.688C206.065 32.9076 220.687 34.5969 225.147 37.9569C229.379 41.1372 231.776 46.6018 235.128 50.9448C236.188 52.3142 237.353 53.5724 238.61 54.7033V54.7033Z" fill="url(#paint2_linear_32_618)"/>
<path d="M165.516 43.4892C173.888 48.4184 180.168 55.7967 187.802 61.7389C200.51 71.6306 217.93 73.6542 232.504 80.5332C247.364 87.5518 258.585 98.4594 263.659 114.18C270.213 134.472 270.836 158.604 265.267 179.466C259.135 202.429 244.733 217.682 223.677 227.855C202.633 238.021 179.32 242.766 156.069 243.744C153.825 243.841 151.585 243.893 149.336 243.907C98.8251 244.2 31.5913 226.421 14.3943 172.159C14.2367 171.663 14.0856 171.168 13.9341 170.665C12.1621 164.619 11.1202 158.384 10.8307 152.091C9.74903 129.781 13.6537 105.156 21.4753 84.2422C26.736 70.1619 38.0642 58.2564 50.001 49.7735C66.7722 37.856 87.2355 34.8146 107.602 33.3847C122.684 32.3265 139.646 31.9399 153.908 37.7087C157.916 39.3428 161.796 41.275 165.516 43.4892Z" fill="url(#paint3_linear_32_618)"/>
<path d="M187.878 98.9629C187.878 98.9629 187.199 108.555 186.247 122.07C185.499 132.679 184.577 145.708 183.668 158.434C183.448 161.559 183.218 164.657 183.002 167.699C182.483 175.05 181.981 182.056 181.532 188.144C181.138 193.263 180.8 197.746 180.544 201.225C180.202 205.682 179.973 208.507 179.887 208.996C179.389 212.229 169.878 218.503 147.969 218.503C126.07 218.503 113.327 218.845 109.087 213.587C108.451 212.787 107.679 209.675 106.836 204.946C105.002 194.678 102.8 176.815 100.817 158.789C99.5802 147.595 98.4119 136.348 97.4602 126.799C95.9801 112.018 94.989 101.342 94.989 101.342L121.601 100.663L155.439 99.7932L187.878 98.9629Z" fill="#FB4C47"/>
<path d="M186.25 122.07C185.501 132.68 184.579 145.708 183.67 158.435C175.193 160.732 150.078 165.392 100.819 158.789C99.5822 147.595 98.4139 136.349 97.4622 126.799C110.425 128.292 152.412 131.974 186.25 122.07Z" fill="#D9423D"/>
<path d="M180.543 201.226C180.202 205.679 179.972 208.508 179.89 208.997C179.388 212.229 169.878 218.504 147.969 218.504C126.07 218.504 113.33 218.845 109.09 213.588C108.45 212.784 107.679 209.676 106.836 204.947C118.397 207.028 150.916 211.343 180.543 201.226Z" fill="#D9423D"/>
<path d="M190.757 100.16C189.238 101.843 176.849 107.629 143.051 109.316C139.887 109.476 136.829 109.559 133.937 109.572C108.481 109.775 93.7656 105.131 93.467 104.236C93.1289 103.202 92.4496 96.4086 93.3062 95.5685L93.3193 95.5554C94.1364 94.8596 103.834 99.8479 131.735 99.0307C135.175 98.9355 138.88 98.7452 142.887 98.4466C175.72 96.0148 186.248 91.0036 188.936 90.8395C189.251 90.8132 189.454 90.8526 189.579 90.9773C190.757 92.1719 192.293 98.4466 190.757 100.16Z" fill="#FF807C"/>
<path d="M188.898 91.6555C187.717 96.0825 153.403 104.234 136.597 103.88C135.252 103.854 133.827 103.814 132.347 103.732C115.394 102.958 91.2665 99.466 93.3044 95.5673L93.3176 95.5542C93.5342 95.2129 100.331 85.2298 127.402 82.4863C129.046 82.3222 130.769 82.1877 132.564 82.0794C133.499 82.0104 134.451 81.9678 135.429 81.9153C135.606 81.9153 135.783 81.9153 135.96 81.9021C136.938 81.8595 137.943 81.8332 138.976 81.8201C140.171 81.7939 141.339 81.7807 142.478 81.7807C175.039 81.5477 188.366 86.6968 188.937 90.8383C188.977 91.1238 188.967 91.3962 188.898 91.6555Z" fill="#C63F3B"/>
<path d="M150.592 102.734C150.057 103.621 147.198 104.404 143.896 104.808C140.645 105.207 136.942 105.224 134.605 104.597C133.552 104.32 132.77 103.92 132.423 103.377C132.235 103.083 131.959 102.263 131.613 101.047C131.007 98.956 130.175 95.6832 129.259 91.9013C129.155 91.4512 129.038 90.9969 128.929 90.5257C128.382 88.2625 127.809 85.8268 127.22 83.3869C126.856 81.8557 126.472 80.3244 126.112 78.81C125.903 77.956 125.698 77.1189 125.506 76.3028C124.762 73.2865 124.052 70.4512 123.412 68.0996C122.601 65.0497 121.908 62.7865 121.439 61.9367C121.335 61.7601 121.247 61.6381 121.18 61.5876C121.076 61.5161 120.921 61.4824 120.7 61.4488C119.471 61.2552 116.495 61.4488 112.997 61.7096C105.971 62.2312 96.9053 63.0137 96.0944 61.3604C95.5929 60.334 95.2125 58.0707 95.1122 55.5635C94.9199 51.6597 95.3839 47.2047 96.9596 46.1404C98.1549 45.3411 105.005 44.5419 112.478 44.1885C116.357 44.0329 120.403 43.9824 123.914 44.1212C128.382 44.2937 131.976 44.7648 133.289 45.6861C133.861 46.0899 134.588 47.3267 135.437 49.1735C136.649 51.8027 138.083 55.6477 139.587 60.1236C140.469 62.8075 141.389 65.6976 142.308 68.6549C143.203 71.5996 144.084 74.6116 144.92 77.59C145.058 78.0401 145.175 78.4776 145.297 78.932C145.455 79.5041 145.631 80.0804 145.786 80.6525C146.321 82.6213 146.839 84.5564 147.324 86.3989C147.616 87.5137 147.892 88.578 148.135 89.6213C148.807 92.2505 149.363 94.6189 149.798 96.6045C150.504 100.033 150.835 102.317 150.592 102.734Z" fill="#F5C827"/>
<path d="M149.581 96.4318L141.904 98.2349L131.237 100.73C130.63 98.7071 129.791 95.5405 128.868 91.8813L139.252 88.849L147.085 86.5575C148.114 90.3306 148.97 93.7536 149.581 96.4318Z" fill="#FFAE00"/>
<path d="M145.22 78.6671C143.045 79.225 140.231 79.9659 137.363 80.685C133.658 81.6438 129.866 82.6157 127.296 83.2869C126.936 81.6961 126.554 80.1097 126.194 78.5407C125.986 77.656 125.788 76.7887 125.597 75.9432L134.86 71.5413L142.253 68.0242C143.144 71.0706 144.019 74.1911 144.843 77.2768C144.98 77.7475 145.1 78.1964 145.22 78.6671Z" fill="#FFAE00"/>
<path d="M139.768 60.2155L132.383 63.7121L123.249 68.0242C122.421 65.0383 121.712 62.8225 121.234 61.9906L129.272 54.9644L135.529 49.4909C136.767 52.065 138.231 55.8334 139.768 60.2155Z" fill="#FFAE00"/>
<path d="M123.414 44.1196C122.999 46.5283 122.493 49.4852 121.931 52.5625C121.401 55.482 120.856 58.4887 120.345 61.2254C119.178 61.0344 116.341 61.2254 113.006 61.4829L112.775 53.1439L112.512 44.1902C116.205 44.0324 120.067 43.9826 123.414 44.1196Z" fill="#FFAE00"/>
<g opacity="0.309998">
<g opacity="0.309998">
<path opacity="0.309998" d="M150.206 89.0697C158.404 89.4307 166.516 90.3397 174.589 91.8263C177.152 92.2989 178.252 88.3739 175.672 87.8981C167.242 86.3426 158.768 85.3712 150.206 84.9938C147.584 84.8789 147.591 88.9548 150.206 89.0697Z" fill="white"/>
</g>
</g>
<g opacity="0.300003">
<g opacity="0.300003">
<path opacity="0.300003" d="M175.647 119.716C175.181 134.598 174.232 149.448 172.808 164.268C172.555 166.877 176.635 166.861 176.881 164.268C178.311 149.448 179.257 134.598 179.723 119.716C179.805 117.093 175.729 117.093 175.647 119.716Z" fill="#FFC7D3"/>
</g>
<g opacity="0.300003">
<path opacity="0.300003" d="M174.704 175.571C177.326 175.571 177.33 171.495 174.704 171.495C172.082 171.495 172.075 175.571 174.704 175.571Z" fill="#FFC7D3"/>
</g>
</g>
<defs>
<linearGradient id="paint0_linear_32_618" x1="10.8721" y1="195.712" x2="26.0782" y2="248.511" gradientUnits="userSpaceOnUse">
<stop stop-color="#FFD0D0"/>
<stop offset="1" stop-color="#FFF7F7"/>
</linearGradient>
<linearGradient id="paint1_linear_32_618" x1="294.898" y1="54.5165" x2="124.706" y2="15.2168" gradientUnits="userSpaceOnUse">
<stop stop-color="#FFF7F7"/>
<stop offset="1" stop-color="#FFD0D0"/>
</linearGradient>
<linearGradient id="paint2_linear_32_618" x1="258.795" y1="56.3865" x2="200.404" y2="31.4468" gradientUnits="userSpaceOnUse">
<stop stop-color="#FFD0D0"/>
<stop offset="1" stop-color="#FFFBFC"/>
</linearGradient>
<linearGradient id="paint3_linear_32_618" x1="245.613" y1="220.851" x2="10.8786" y2="84.9173" gradientUnits="userSpaceOnUse">
<stop stop-color="#FFCFCF"/>
<stop offset="1" stop-color="#FFF8F8"/>
</linearGradient>
</defs>
</svg>
