<svg width="270" height="249" viewBox="0 0 270 249" fill="none" xmlns="http://www.w3.org/2000/svg">
<path d="M102.298 236.076C87.9242 241.169 73.4113 243.521 57.9311 240.58C40.6768 237.301 25.711 222.535 17.2548 207.81C14.1129 202.34 11.6115 196.228 11.9384 189.931C12.6989 175.381 26.4437 173.756 38.1109 176.109C44.6877 177.432 50.7266 180.445 56.6969 183.428C66.6091 188.385 78.2363 190.822 87.1229 197.693C90.1048 200.005 92.3442 202.783 95.8092 204.465C101.199 207.083 107.352 208.32 112.888 210.703C117.615 212.748 122.898 216.112 122.905 221.26C122.906 226.539 117.398 229.904 112.558 232.006C109.132 233.503 105.722 234.868 102.298 236.076Z" fill="url(#paint0_linear_32_427)"/>
<path d="M49.3907 48.4113C72.9369 13.7112 121.626 -0.221482 161.092 12.825C180.122 19.1193 196.071 32.2259 210.782 45.8318C223.748 57.8235 236.328 70.7577 245.183 86.1737C251.229 96.6964 255.557 109.31 258.613 121.086C263.181 138.718 259.032 161.437 236.24 159.772C230.892 159.382 226.266 157.459 221.264 155.777C217.219 154.413 213.254 155.231 209.054 154.565C198.481 152.891 188.296 148.998 178.665 144.439C159.037 135.139 141.103 122.504 120.917 114.354C104.375 107.685 86.7095 104.241 68.8732 104.209C61.3485 104.197 53.4365 104.724 46.7054 101.359C30.1152 93.0584 37.5757 70.6762 43.7716 58.0855C45.4131 54.7317 47.2909 51.4988 49.3907 48.4113V48.4113Z" fill="url(#paint1_linear_32_427)"/>
<path d="M234.007 53.6482C237.883 57.1592 253.114 66.7439 253.407 55.4962C253.476 52.6941 252.205 49.9734 250.475 47.9214C248.497 45.566 246.253 44.3305 244.708 41.5864C242.817 38.2731 240.665 35.1591 238.279 32.2847C233.401 26.302 227.706 20.7741 220.797 18.3112C215.95 16.5858 207.745 17.0197 205.443 23.231C202.089 32.2728 216.43 33.9296 220.803 37.2248C224.954 40.3437 227.304 45.703 230.592 49.9623C231.631 51.3053 232.774 52.5392 234.007 53.6482V53.6482Z" fill="url(#paint2_linear_32_427)"/>
<path d="M162.324 42.651C170.535 47.4852 176.694 54.7212 184.18 60.5488C196.644 70.2497 213.727 72.2344 228.02 78.9807C242.594 85.864 253.598 96.5612 258.574 111.979C265.002 131.88 265.613 155.546 260.152 176.005C254.137 198.526 240.014 213.485 219.363 223.462C198.725 233.432 175.862 238.085 153.059 239.045C150.859 239.139 148.662 239.19 146.456 239.204C96.919 239.492 30.9818 222.055 14.1164 168.84C13.9618 168.353 13.8136 167.867 13.6651 167.374C11.9272 161.445 10.9054 155.33 10.6215 149.158C9.56065 127.279 13.39 103.129 21.0608 82.6181C26.2201 68.8093 37.3298 57.1334 49.0364 48.8141C65.4842 37.1264 85.5529 34.1437 105.527 32.7414C120.318 31.7036 136.953 31.3244 150.94 36.982C154.871 38.5846 158.676 40.4795 162.324 42.651Z" fill="url(#paint3_linear_32_427)"/>
<path d="M193.966 233.121C130.471 251.583 80.419 235.143 61.8996 223.933L44.7029 210.746L50.6556 200.855L87.6946 197.559L149.206 194.262L198.812 204.152L208.31 199.323L210.004 216.823C212.262 230.371 210.568 226.984 193.966 233.121Z" fill="#FB4C47"/>
<path d="M75.9011 225.279H184.631C184.631 225.279 194.314 144.156 179.999 136.244C165.686 128.332 98.7527 129.986 83.9173 136.743C69.082 143.5 75.9011 225.279 75.9011 225.279Z" fill="#FB4C47"/>
<path d="M80.9216 119.157C80.7 119.157 80.476 119.075 80.3026 118.909C80.2062 118.82 70.8195 109.695 77.2917 93.6296C79.5607 87.9965 81.6732 84.0393 83.5351 80.5499C86.8977 74.2536 89.3257 69.7032 90.4409 59.6812C90.4963 59.1869 90.9492 58.8396 91.4381 58.883C91.9343 58.9385 92.2908 59.387 92.2354 59.8814C91.0816 70.2506 88.4537 75.1724 85.1297 81.4036C83.287 84.8519 81.2011 88.7633 78.9658 94.3048C72.9512 109.239 81.4564 117.513 81.5407 117.597C81.9044 117.939 81.9213 118.511 81.5768 118.873C81.401 119.061 81.1625 119.157 80.9216 119.157Z" fill="#000C3E"/>
<path d="M141.308 23.6802C141.05 30.5456 135.284 35.9039 128.426 35.6458C121.568 35.3878 116.216 29.6148 116.474 22.7494C116.732 15.884 122.498 10.5258 129.356 10.7838C136.213 11.0418 141.566 16.8148 141.308 23.6802Z" fill="#000C3E"/>
<path d="M80.0869 114.342C80.0869 114.342 83.187 122.109 97.8464 125.813C112.506 129.517 124.545 124.971 135.709 129.953C146.876 134.938 163.824 130.699 167.451 126.112C171.076 121.525 174.203 68.0755 165.804 58.4756C157.405 48.8732 110.581 38.0096 99.5687 47.7542C88.556 57.4989 74.0073 107.862 80.0869 114.342Z" fill="#000C3E"/>
<path d="M172.212 75.2888C171.364 97.913 152.359 115.567 129.758 114.721C107.16 113.872 86.1843 93.8304 87.0322 71.2062C87.8776 48.5819 107.061 32.1575 129.659 33.0064C152.261 33.8528 173.06 52.6645 172.212 75.2888Z" fill="#000C3E"/>
<path d="M148.088 109.566C148.088 109.566 150.745 141.491 148.088 145.038C145.431 148.585 128.599 145.926 124.172 145.038C119.742 144.153 117.969 109.566 120.629 109.566C123.285 109.566 147.578 102.447 148.088 109.566Z" fill="#FFCEB0"/>
<path d="M97.859 72.2161C97.859 72.2161 99.5427 121.976 133.147 124.125C166.751 126.274 166.717 56.1631 154.556 49.4954C142.394 42.8253 91.6469 44.0769 97.859 72.2161Z" fill="#FFCEB0"/>
<path d="M137.794 82.8685C137.794 82.8685 144.211 98.1836 142.561 99.1989C140.909 100.214 136.077 100.033 134.774 98.9071C133.47 97.7809 135.169 81.154 137.794 82.8685Z" fill="#EE9B68"/>
<path d="M124.319 45.6798C124.319 45.6798 112.27 51.5131 109.977 62.4635C107.684 73.4164 108.872 101.457 96.1053 100.169C96.1053 100.169 71.3845 44.6767 124.319 45.6798" fill="#000C3E"/>
<path d="M130.671 45.918C129.578 46.7017 143.095 46.6703 150.823 56.0485C158.552 65.4266 160.388 88.8659 161.582 89.3024C162.777 89.7364 167.549 60.2565 159.077 51.3992C150.603 42.5444 136.893 41.4592 130.671 45.918Z" fill="#000C3E"/>
<path d="M121.093 119.588C121.093 119.588 134.168 127.03 147.744 120.075C147.744 120.075 148.799 128.428 147.744 130.355C146.686 132.282 125.186 133.659 120.954 124.163C120.954 124.163 119.872 119.176 121.093 119.588" fill="#EE9B68"/>
<path d="M158.394 91.2887C158.394 91.2887 161.036 78.8094 165.444 83.1983C169.85 87.5871 165.728 100.64 161.33 101.865C156.932 103.09 155.92 97.7321 158.394 91.2887Z" fill="#FFCEB0"/>
<path d="M105.683 89.3117C105.683 89.3117 103.407 76.6492 97.4787 80.6498C91.5508 84.6504 95.6408 98.0123 101.085 99.6062C106.526 101.198 108.258 95.9456 105.683 89.3117Z" fill="#FFCEB0"/>
<path d="M144.829 75.8672C144.829 75.8672 150.408 72.1174 154.524 76.2144C158.142 79.8171 150.497 77.3984 147.859 78.1966C145.222 78.9924 141.645 79.1468 144.829 75.8672Z" fill="#41294A"/>
<path d="M130.118 76.7528C130.118 76.7528 124.77 72.6798 120.42 76.5261C116.595 79.9093 124.371 77.9464 126.955 78.899C129.54 79.8491 133.105 80.2156 130.118 76.7528Z" fill="#41294A"/>
<path d="M124.309 80.8505C119.085 80.8505 114.838 84.9475 114.643 90.178C114.443 95.5169 118.62 100.024 123.955 100.224L124.324 100.231C129.548 100.231 133.795 96.1342 133.99 90.9038C134.086 88.3163 133.171 85.847 131.413 83.9492C129.654 82.0514 127.262 80.9542 124.68 80.8577L124.309 80.8505ZM124.324 101.437C124.187 101.437 124.049 101.435 123.91 101.43C117.912 101.203 113.215 96.1366 113.439 90.1321C113.665 84.1132 118.702 79.4374 124.724 79.652C127.629 79.7605 130.319 80.9952 132.294 83.1293C134.272 85.2634 135.3 88.039 135.194 90.9472C134.973 96.8287 130.199 101.437 124.324 101.437Z" fill="#FFFCF6"/>
<path d="M114.045 90.7578C113.968 90.7578 113.891 90.7433 113.814 90.712L104.706 86.9357C104.4 86.8078 104.253 86.4534 104.381 86.1471C104.509 85.8384 104.86 85.6913 105.166 85.8216L114.276 89.5979C114.582 89.7257 114.729 90.0778 114.601 90.3864C114.505 90.6179 114.281 90.7578 114.045 90.7578Z" fill="#FFFCF6"/>
<path d="M135.191 50.2934C135.191 50.2934 133.827 69.6139 141.254 72.0616C148.68 74.5116 163.021 74.2656 163.903 71.314C164.784 68.3648 149.744 44.6241 138.951 40.8164C120.025 34.1415 102.774 62.0782 104.935 69.5006C107.095 76.9254 129.643 73.8943 133.112 72.9393C136.583 71.9844 134.497 55.6251 135.191 50.2934Z" fill="#000C3E"/>
<path d="M135.191 90.9492C134.88 90.9492 134.615 90.7081 134.591 90.3922C134.567 90.0594 134.815 89.77 135.145 89.7435L141.273 89.2781C141.61 89.2636 141.894 89.4999 141.921 89.8351C141.945 90.1655 141.697 90.4549 141.364 90.4814L135.239 90.9492C135.222 90.9492 135.205 90.9492 135.191 90.9492Z" fill="#FFFCF6"/>
<path d="M121.128 35.5762C120.988 35.5762 120.848 35.5448 120.716 35.4749C117.108 33.6133 114.954 31.0161 114.323 27.7607C112.929 20.5986 119.439 12.9037 119.719 12.5806C120.044 12.202 120.612 12.161 120.991 12.4817C121.371 12.8073 121.415 13.3788 121.089 13.7574C121.027 13.8297 114.865 21.1195 116.096 27.4206C116.619 30.1022 118.452 32.2725 121.542 33.8689C121.985 34.098 122.161 34.6429 121.932 35.0866C121.771 35.3977 121.455 35.5762 121.128 35.5762Z" fill="#000C3E"/>
<path d="M135.462 37.7915C135.204 37.7915 134.946 37.6806 134.768 37.4684C134.448 37.0849 134.498 36.5134 134.881 36.1927C134.956 36.1324 142.228 29.9543 142.047 23.5374C141.97 20.8052 140.52 18.3624 137.733 16.2814C137.333 15.9823 137.251 15.4156 137.55 15.0153C137.846 14.6174 138.417 14.533 138.812 14.8321C142.067 17.2628 143.762 20.1783 143.854 23.494C144.054 30.7886 136.367 37.3068 136.04 37.5817C135.871 37.7216 135.664 37.7915 135.462 37.7915Z" fill="#000C3E"/>
<path d="M164.34 124.287C164.048 124.287 163.762 124.145 163.588 123.884C163.309 123.47 163.422 122.91 163.836 122.63C164.195 122.387 172.689 116.551 171.359 105.591C170.841 101.313 169.67 96.541 168.43 91.4865C166.274 82.6896 164.041 73.5936 164.605 65.0136C164.636 64.5169 165.079 64.1166 165.566 64.1696C166.065 64.2034 166.44 64.6326 166.407 65.1318C165.862 73.4344 168.059 82.3906 170.186 91.0549C171.436 96.1624 172.621 100.988 173.151 105.372C174.62 117.46 165.238 123.868 164.838 124.135C164.687 124.236 164.511 124.287 164.34 124.287Z" fill="#000C3E"/>
<path d="M172.131 79.4316C172.091 79.4316 172.05 79.4292 172.004 79.422C171.51 79.3521 171.168 78.8963 171.238 78.402C173.211 64.3914 169.272 53.2746 159.536 45.3626C152.252 39.4425 144.313 37.6364 144.234 37.6195C143.747 37.5134 143.439 37.0311 143.547 36.5416C143.653 36.0544 144.137 35.7482 144.624 35.8543C144.956 35.9266 177.958 43.6385 173.025 78.6527C172.962 79.1061 172.577 79.4316 172.131 79.4316Z" fill="#000C3E"/>
<path d="M139.458 114.903C137.623 114.903 136.202 114.32 136.11 114.281C135.653 114.088 135.436 113.56 135.628 113.1C135.819 112.641 136.346 112.424 136.806 112.612C136.835 112.624 139.572 113.727 141.961 112.542C142.409 112.316 142.949 112.499 143.173 112.948C143.394 113.394 143.214 113.936 142.766 114.158C141.641 114.72 140.485 114.903 139.458 114.903Z" fill="#EE9B68"/>
<path d="M102.261 96.4233C102.174 96.4233 102.085 96.4113 101.998 96.3848C101.519 96.2377 101.252 95.7337 101.396 95.2562C103.215 89.2806 98.8646 85.3114 98.8213 85.2704C98.4479 84.9376 98.4166 84.3661 98.749 83.9947C99.079 83.6209 99.6547 83.5872 100.023 83.92C100.24 84.1129 105.277 88.7139 103.126 95.7819C103.008 96.1725 102.649 96.4233 102.261 96.4233Z" fill="#EE9B68"/>
<path d="M161.356 96.6001C161.334 96.6001 161.313 96.6001 161.294 96.5977C160.795 96.5615 160.419 96.1299 160.455 95.6331C160.865 89.8529 164.471 86.9254 164.622 86.8048C165.02 86.4937 165.576 86.5588 165.889 86.9495C166.2 87.3377 166.135 87.9068 165.75 88.2179C165.718 88.2444 162.609 90.8078 162.257 95.7585C162.223 96.236 161.826 96.6001 161.356 96.6001Z" fill="#EE9B68"/>
<path d="M101.086 139.505C101.086 139.505 132.187 167.135 149.525 159.935C166.861 152.734 171.984 135.818 163.269 133.228C154.555 130.638 87.4571 128.68 101.086 139.505Z" fill="#FFCEB0"/>
<path d="M141.255 111.662C141.154 111.662 141.05 111.645 140.949 111.609C138.119 110.582 136.719 109.33 136.666 107.777C136.582 105.243 140.45 103.466 140.891 103.27C141.344 103.07 141.879 103.275 142.081 103.733C142.281 104.189 142.076 104.724 141.618 104.927C140.33 105.496 138.439 106.779 138.473 107.717C138.494 108.397 139.651 109.214 141.561 109.907C142.03 110.078 142.274 110.596 142.105 111.064C141.97 111.433 141.623 111.662 141.255 111.662Z" fill="#EE9B68"/>
<path d="M126.957 93.0391C126.673 93.0391 126.389 92.9378 126.16 92.7376C122.128 89.1687 119.321 90.0947 119.203 90.1333C118.584 90.3551 117.895 90.0344 117.667 89.4195C117.438 88.8021 117.736 88.1197 118.348 87.881C118.517 87.8134 122.547 86.3207 127.754 90.929C128.253 91.3703 128.301 92.1348 127.86 92.6315C127.622 92.9016 127.289 93.0391 126.957 93.0391Z" fill="#41294A"/>
<path d="M148.215 93.2646C147.882 93.2646 147.552 93.1272 147.311 92.8571C146.871 92.3579 146.919 91.5959 147.417 91.1546C152.632 86.5415 156.655 88.039 156.823 88.1066C157.442 88.3477 157.751 89.047 157.507 89.6668C157.269 90.2841 156.58 90.5879 155.966 90.3589C155.821 90.3082 153.022 89.416 149.012 92.9632C148.783 93.1634 148.499 93.2646 148.215 93.2646Z" fill="#41294A"/>
<path d="M223.55 112.262L200.715 105.66L194.031 114.31L177.883 112.602L196.912 121.939L203.555 111.064L223.55 112.262Z" fill="#000C3E"/>
<path d="M203.717 95.629L189.298 95.8533L186.95 102.058L177.276 103.934L189.973 105.974L191.902 98.4842L203.717 95.629Z" fill="#000C3E"/>
<path d="M151.53 79.3143C146.305 79.3143 142.059 83.4114 141.864 88.6418C141.664 93.9832 145.84 98.4878 151.176 98.6879L151.544 98.6952C156.769 98.6952 161.016 94.5981 161.211 89.3677C161.411 84.0287 157.231 79.5217 151.898 79.3216L151.53 79.3143ZM151.544 99.9009C151.405 99.9009 151.267 99.8985 151.128 99.8936C145.132 99.667 140.435 94.6005 140.659 88.5984C140.886 82.577 145.918 77.906 151.947 78.1158C157.942 78.3425 162.637 83.409 162.415 89.4111C162.196 95.2926 157.419 99.9009 151.544 99.9009" fill="#FFFCF6"/>
<path d="M116.465 181.965C116.465 181.965 134.774 160.371 150.763 130.963C157.028 119.436 168.766 116.637 169.192 118.252C169.618 119.87 162.371 126.618 162.371 126.618C162.371 126.618 172.03 119.489 173.595 121.814C175.161 124.139 167.275 131.199 167.275 131.199C167.275 131.199 174.308 127.126 177.293 128.834C180.277 130.541 168.978 132.709 169.192 138.651C172.473 229.9 129.487 222.789 129.487 222.789L116.465 181.965Z" fill="#FFBD96"/>
<path d="M134.778 161.274C134.665 161.274 134.549 161.252 134.436 161.206C133.976 161.018 133.754 160.49 133.942 160.027C144.463 134.242 150.936 130.472 151.205 130.325C151.644 130.084 152.19 130.251 152.431 130.685C152.67 131.121 152.511 131.666 152.082 131.907C151.959 131.982 145.718 135.946 135.614 160.712C135.471 161.062 135.132 161.274 134.778 161.274Z" fill="#EE9B68"/>
<path d="M106.854 198.224L44.7807 203.179C44.7807 203.179 42.6972 173.427 51.6504 158.066C60.6036 142.705 85.5652 135.755 89.7396 134.894C93.9139 134.033 106.854 198.224 106.854 198.224Z" fill="#FB4C47"/>
<path d="M178.28 135.379C178.28 135.379 200.62 140.219 204.915 163.874C207.663 178.996 211.52 227.338 211.52 227.338L201.534 231.166L192.358 233.9L173.039 238.275L178.28 135.379Z" fill="#D9423D"/>
<path d="M114.038 178.121C114.038 178.121 140.578 221.635 131.35 222.841C122.122 224.047 75.1517 227.664 62.5059 222.841C49.86 218.018 43.4167 212.052 45.0257 198.775C43.6064 178.121 50.3813 152.837 53.7487 158.562C70.8699 187.67 114.038 178.121 114.038 178.121Z" fill="#D9423D"/>
<path d="M111.388 179.327C93.8521 179.327 77.9762 161.918 77.309 161.178C76.8634 160.684 76.9019 159.919 77.3957 159.476C77.8895 159.029 78.6507 159.068 79.0963 159.562C79.2529 159.736 94.9312 176.915 111.388 176.915C112.052 176.915 112.592 177.455 112.592 178.121C112.592 178.786 112.052 179.327 111.388 179.327Z" fill="#B43936"/>
<path d="M181.789 222.371H181.76C181.096 222.354 180.568 221.802 180.585 221.136C180.592 220.828 181.31 190.188 180.587 176.445C179.908 163.536 176.57 160.638 176.536 160.609C176.032 160.194 175.938 159.444 176.338 158.928C176.733 158.417 177.458 158.299 177.988 158.685C178.422 159.005 182.249 162.205 182.991 176.317C183.721 190.154 183.001 220.886 182.994 221.194C182.977 221.85 182.442 222.371 181.789 222.371Z" fill="#B43936"/>
<path d="M132.501 13.1995C132.184 13.1995 131.84 13.2363 131.467 13.3099C130.558 13.4924 129.969 13.9341 129.616 14.7007C128.039 18.1129 131.363 26.2399 133.738 31.0413C135.206 25.715 136.965 16.8117 134.479 14.0061C134.001 13.4667 133.349 13.1995 132.501 13.1995ZM134.015 35.0488C133.62 35.0488 133.25 34.836 133.055 34.4839C132.215 32.9778 124.929 19.6029 127.618 13.7788C128.265 12.3784 129.447 11.4694 131.037 11.1525C133.745 10.6131 135.3 11.6134 136.126 12.5465C140.444 17.4215 135.625 32.5809 135.062 34.2934C134.924 34.7079 134.556 35.0024 134.121 35.044C134.086 35.0472 134.05 35.0488 134.015 35.0488Z" fill="#FFD310"/>
<path d="M147.333 18.6116C147.229 18.6116 147.124 18.618 147.018 18.634C143.3 19.1286 138.808 27.014 136.433 32.0026C141.37 29.9236 149.201 25.9529 150.241 22.3423C150.475 21.5292 150.318 20.8106 149.75 20.0776C148.985 19.0933 148.193 18.6116 147.333 18.6116ZM134.322 35.1187C134.026 35.1187 133.736 35.0002 133.526 34.7794C133.224 34.4625 133.137 33.9983 133.305 33.595C134 31.9322 140.271 17.3136 146.727 16.4526C147.964 16.2878 149.793 16.547 151.486 18.7268C152.482 20.0072 152.783 21.4684 152.356 22.9504C150.579 29.1138 136.317 34.4625 134.698 35.053C134.575 35.0978 134.448 35.1187 134.322 35.1187Z" fill="#FFD310"/>
<path d="M113.666 31.2319C119.011 34.6676 131.226 37.3397 140.77 31.2319" stroke="#FFD310" stroke-width="1.63065"/>
<defs>
<linearGradient id="paint0_linear_32_427" x1="10.6625" y1="191.939" x2="25.5753" y2="243.72" gradientUnits="userSpaceOnUse">
<stop stop-color="#FFD8D8"/>
<stop offset="1" stop-color="#FFF8F8"/>
</linearGradient>
<linearGradient id="paint1_linear_32_427" x1="259.25" y1="79.4151" x2="102.754" y2="-19.3788" gradientUnits="userSpaceOnUse">
<stop stop-color="#FFF8F8"/>
<stop offset="1" stop-color="#FFCFCF"/>
</linearGradient>
<linearGradient id="paint2_linear_32_427" x1="253.802" y1="55.299" x2="196.538" y2="30.8402" gradientUnits="userSpaceOnUse">
<stop stop-color="#FFD7D7"/>
<stop offset="1" stop-color="#FFF9F9"/>
</linearGradient>
<linearGradient id="paint3_linear_32_427" x1="240.876" y1="216.593" x2="10.6684" y2="83.2803" gradientUnits="userSpaceOnUse">
<stop stop-color="#FFCFCF"/>
<stop offset="1" stop-color="#FFF8F8"/>
</linearGradient>
</defs>
</svg>
