<svg width="49" height="35" viewBox="0 0 49 35" fill="none" xmlns="http://www.w3.org/2000/svg">
<rect width="49" height="35" rx="2.64865" fill="white"/>
<mask id="mask0_46_411" style="mask-type:luminance" maskUnits="userSpaceOnUse" x="0" y="0" width="49" height="35">
<rect width="49" height="35" rx="2.64865" fill="white"/>
</mask>
<g mask="url(#mask0_46_411)">
<rect width="49" height="35" fill="#F1361D"/>
<path fill-rule="evenodd" clip-rule="evenodd" d="M17.6335 10.4249L19.3283 10.7138L20.5994 11.8714L20.8883 10.1766L22.046 8.90554L20.3512 8.6166L19.0801 7.45898L18.7912 9.15376L17.6335 10.4249ZM22.1694 16.3525L23.638 15.4587L25.3568 15.4984L24.463 14.0298L24.5027 12.3111L23.0341 13.2049L21.3153 13.1651L22.2091 14.6337L22.1694 16.3525ZM20.1803 25.9478L18.7437 26.8923L18.7235 25.1732L17.779 23.7367L19.4981 23.7164L20.9346 22.7719L20.9549 24.491L21.8994 25.9275L20.1803 25.9478ZM21.4265 21.5031L23.1352 21.3137L24.6762 22.0761L24.4868 20.3673L25.2492 18.8264L23.5404 19.0158L21.9995 18.2534L22.1889 19.9621L21.4265 21.5031Z" fill="#FFDC42"/>
<path fill-rule="evenodd" clip-rule="evenodd" d="M11.666 19.3965L7.55152 22.3296L9.06963 17.5101L5.00862 14.5034L10.0614 14.4579L11.666 9.6665L13.2707 14.4579L18.3234 14.5034L14.2624 17.5101L15.7805 22.3296L11.666 19.3965Z" fill="#FFDC42"/>
</g>
</svg>
