<svg width="197" height="197" viewBox="0 0 197 197" fill="none" xmlns="http://www.w3.org/2000/svg">
<g opacity="1">
<path d="M126.324 91.9051C127.54 93.6218 129.917 94.028 131.634 92.812L138.704 87.8052C142.302 85.2563 146.442 83.5631 150.803 82.9086C152.103 82.7136 153.375 82.1767 154.484 81.2753C157.419 78.8869 158.143 74.6111 156.156 71.3895C153.824 67.6074 148.829 66.6308 145.261 69.1585C144.294 69.8432 143.535 70.7119 142.998 71.6835C140.844 75.5829 137.935 79.0144 134.299 81.5894L127.231 86.5954C125.514 87.811 125.108 90.1885 126.324 91.9051Z" fill="#FFC700"/>
<path d="M92.6313 132.735C90.917 132.442 89.2899 133.594 88.9971 135.309L87.7913 142.369C87.1775 145.963 85.7473 149.372 83.5805 152.305C82.9343 153.179 82.5046 154.236 82.3839 155.411C82.0638 158.523 84.1406 161.446 87.1851 162.168C90.7594 163.016 94.2504 160.667 94.8591 157.103C95.0239 156.138 94.9596 155.186 94.7056 154.304C93.6854 150.765 93.3801 147.059 94.0002 143.428L95.2057 136.369C95.498 134.655 94.3456 133.028 92.6313 132.735V132.735Z" fill="#D09700"/>
<path d="M103.51 69.0597C105.304 69.3661 107.007 68.1602 107.313 66.3662L108.575 58.9786C109.217 55.2178 110.714 51.6498 112.981 48.5815C113.657 47.6666 114.107 46.5601 114.233 45.3308C114.568 42.0737 112.395 39.0156 109.209 38.26C105.469 37.3728 101.816 39.8312 101.179 43.5605C101.006 44.5707 101.074 45.5662 101.339 46.489C102.407 50.1925 102.727 54.071 102.078 57.8702L100.816 65.2566C100.51 67.0507 101.716 68.7533 103.51 69.0597V69.0597Z" fill="#D09700"/>
<path d="M114.055 120.201C112.339 121.417 111.933 123.794 113.148 125.511L118.155 132.58C120.704 136.179 122.397 140.319 123.052 144.68C123.247 145.98 123.784 147.252 124.685 148.36C127.074 151.296 131.349 152.019 134.571 150.033C138.353 147.701 139.33 142.706 136.802 139.137C136.117 138.171 135.249 137.412 134.277 136.875C130.378 134.721 126.946 131.812 124.371 128.176L119.365 121.108C118.15 119.391 115.772 118.985 114.055 120.201V120.201Z" fill="#FFC700"/>
<path d="M134.277 136.874C130.377 134.719 126.946 131.81 124.371 128.175L119.365 121.106C118.149 119.39 115.772 118.983 114.055 120.199C112.338 121.415 111.932 123.792 113.148 125.509L118.154 132.578C120.729 136.213 124.16 139.122 128.06 141.277C129.031 141.813 129.9 142.572 130.585 143.539C132.213 145.838 132.385 148.728 131.292 151.118C132.428 151.016 133.552 150.66 134.571 150.032C138.353 147.7 139.329 142.705 136.802 139.136C136.117 138.169 135.248 137.41 134.277 136.874V136.874Z" fill="#D09700"/>
<path d="M66.2307 101.854C71.8386 97.8824 73.1649 90.1166 69.1932 84.5087C65.2214 78.9009 57.4556 77.5745 51.8477 81.5463C46.2398 85.518 44.9135 93.2839 48.8852 98.8918C52.857 104.5 60.6228 105.826 66.2307 101.854Z" fill="#D09700"/>
<path d="M51.8484 81.5456C50.764 82.3136 49.8417 83.2248 49.0846 84.2337C54.1016 82.6522 59.7734 84.3877 62.9771 88.911C66.1807 93.4343 65.9354 99.3607 62.7784 103.568C63.9812 103.189 65.1468 102.622 66.2314 101.853C71.8393 97.8817 73.1657 90.1159 69.1939 84.508C65.2221 78.9001 57.4561 77.5739 51.8484 81.5456V81.5456Z" fill="#FFC700"/>
<path d="M121.998 131.418C140.31 118.449 144.64 93.0916 131.671 74.7802C118.702 56.4688 93.3447 52.1379 75.0333 65.1069C56.7219 78.0759 52.391 103.434 65.36 121.745C78.329 140.056 103.687 144.387 121.998 131.418Z" fill="#FFC700"/>
<path d="M75.0394 65.1061C73.991 65.8486 72.9907 66.6335 72.0346 67.4539C89.9982 57.0848 113.235 61.9194 125.461 79.1823C137.687 96.4452 134.536 119.969 118.793 133.473C119.883 132.843 120.956 132.16 122.005 131.417C140.316 118.448 144.647 93.0907 131.678 74.7792C118.709 56.4678 93.3509 52.137 75.0394 65.1061V65.1061Z" fill="#D09700"/>
<path d="M103.121 87.64C104.475 86.6809 104.796 84.8056 103.837 83.4514C102.877 82.0972 101.002 81.7769 99.6479 82.736C98.2937 83.6951 97.9734 85.5704 98.9325 86.9246C99.8916 88.2788 101.767 88.5991 103.121 87.64Z" fill="white"/>
<path d="M99.0646 124.168C101.583 122.384 102.178 118.897 100.395 116.379C98.6114 113.861 95.1242 113.265 92.606 115.049C90.0879 116.832 89.4923 120.319 91.2758 122.837C93.0593 125.356 96.5464 125.951 99.0646 124.168Z" fill="white"/>
<path d="M81.4287 100.727C85.2839 97.9966 86.1958 92.6579 83.4653 88.8026C80.7348 84.9474 75.3961 84.0356 71.5408 86.766C67.6856 89.4965 66.7738 94.8352 69.5042 98.6905C72.2347 102.546 77.5735 103.458 81.4287 100.727Z" fill="white"/>
<path d="M142.888 113.093C146.322 110.661 147.134 105.907 144.702 102.473C142.27 99.0397 137.516 98.2276 134.082 100.659C130.649 103.091 129.836 107.846 132.268 111.279C134.7 114.713 139.455 115.525 142.888 113.093Z" fill="#FFC700"/>
<path d="M134.083 100.66C132.951 101.462 132.105 102.519 131.565 103.696C134.185 103.455 136.857 104.576 138.487 106.877C140.116 109.178 140.287 112.071 139.191 114.462C140.48 114.344 141.757 113.897 142.89 113.094C146.324 110.663 147.136 105.908 144.704 102.474C142.272 99.0409 137.517 98.2283 134.083 100.66V100.66Z" fill="#D09700"/>
<path d="M76.5793 113.8C77.7951 115.516 77.3892 117.894 75.6724 119.11L68.603 124.117C65.0042 126.665 62.0331 130.008 59.9682 133.905C59.3526 135.067 58.424 136.089 57.2059 136.835C53.9785 138.812 49.705 138.075 47.3253 135.132C44.5315 131.677 45.2682 126.641 48.8371 124.113C49.8038 123.428 50.8752 123.001 51.9698 122.817C56.3633 122.079 60.5657 120.474 64.2013 117.899L71.2697 112.893C72.986 111.677 75.3635 112.083 76.5793 113.8Z" fill="#D09700"/>
<path d="M82.9809 76.3236C84.6975 75.1078 85.1037 72.7305 83.8878 71.0136L78.8809 63.9443C76.332 60.3454 74.6389 56.2058 73.9844 51.8446C73.7893 50.5444 73.2524 49.2724 72.351 48.1643C69.9626 45.2284 65.6868 44.5052 62.4652 46.4915C58.6831 48.8234 57.7066 53.8184 60.2342 57.3872C60.9189 58.354 61.7877 59.1128 62.7592 59.6495C66.6587 61.804 70.0902 64.7128 72.6651 68.3484L77.6712 75.4168C78.8867 77.1333 81.2642 77.5394 82.9809 76.3236Z" fill="#FFC700"/>
<path d="M72.3489 48.1649C69.9606 45.229 65.6848 44.5058 62.4631 46.4921C61.1175 47.3216 60.1293 48.4891 59.5253 49.8088C61.9831 49.5883 64.4988 50.5604 66.1321 52.568C67.0334 53.6761 67.5703 54.9481 67.7654 56.2483C68.4199 60.6095 70.1131 64.7491 72.6619 68.348L77.6688 75.4173C78.8846 77.134 81.2619 77.5401 82.9788 76.3242C84.6956 75.1082 85.1016 72.7311 83.8857 71.0142L78.8788 63.9449C76.33 60.346 74.6368 56.2064 73.9823 51.8452C73.7872 50.545 73.2505 49.2728 72.3489 48.1649V48.1649Z" fill="#D09700"/>
</g>
</svg>
