<svg width="686" height="707" viewBox="0 0 686 707" fill="none" xmlns="http://www.w3.org/2000/svg">
<path d="M268.604 658.265C230.981 674.426 192.504 683.269 150.51 678.096C103.703 672.326 61.0189 635.378 35.7846 597.4C26.409 583.294 18.6376 567.355 18.4119 550.423C17.9049 511.305 54.4502 504.544 86.1244 508.809C103.979 511.205 120.687 518.22 137.207 525.17C164.634 536.718 196.216 541.216 221.229 558.071C229.624 563.745 236.11 570.797 245.689 574.698C260.59 580.771 277.292 583.008 292.543 588.426C305.566 593.079 320.312 601.168 321.231 614.961C322.156 629.108 307.986 639.086 295.385 645.564C286.468 650.176 277.568 654.431 268.604 658.265Z" fill="url(#paint0_linear_30_366)"/>
<path d="M94.0077 164.665C151.031 67.5665 279.058 21.717 387.09 49.7724C439.184 63.3097 484.212 95.6397 526.009 129.524C562.851 159.388 598.821 191.845 625.245 231.604C643.287 258.743 657.089 291.785 667.337 322.804C682.663 369.251 675.519 430.852 614.154 430.378C599.757 430.269 587.024 425.925 573.328 422.292C562.249 419.345 551.769 422.231 540.397 421.18C511.775 418.544 483.803 409.895 457.199 399.364C402.979 377.877 352.713 347.158 297.2 328.851C251.708 313.872 203.77 307.735 155.971 310.77C135.806 312.053 114.698 314.848 96.0735 307.01C50.1675 287.67 66.2432 226.391 80.6431 191.57C84.455 182.296 88.9211 173.305 94.0077 164.665Z" fill="url(#paint1_linear_30_366)"/>
<path d="M589.612 146.407C600.613 155.137 643.1 178.155 641.918 147.965C641.613 140.445 637.732 133.377 632.738 128.181C627.024 122.216 620.796 119.298 616.176 112.215C610.529 103.668 604.218 95.7001 597.321 88.4154C583.205 73.2376 566.979 59.4217 548.034 54.0308C534.746 50.2551 512.835 52.853 507.753 69.899C500.348 94.7136 539.064 96.6446 551.359 104.709C563.026 112.341 570.262 126.29 579.817 137.127C582.836 140.544 586.115 143.651 589.612 146.407Z" fill="url(#paint2_linear_30_366)"/>
<path d="M425.033 137.445C446.366 151.571 461.858 171.846 481.107 188.533C513.155 216.31 558.683 224.051 596.054 244.164C634.159 264.685 662.154 294.928 673.314 336.975C687.732 391.249 686.02 454.797 668.48 508.885C649.164 568.423 609.174 606.537 552.387 630.365C495.633 654.178 433.667 663.418 372.386 662.764C366.472 662.706 360.574 662.531 354.658 662.257C221.783 656.015 47.4403 599.924 9.74979 454.838C9.40407 453.512 9.07563 452.188 8.747 450.845C4.92634 434.701 3.05218 418.157 3.16454 401.567C3.41758 342.748 17.105 278.532 40.5781 224.618C56.3677 188.32 87.8115 158.584 120.381 137.933C166.14 108.921 220.377 103.764 274.136 102.832C313.945 102.143 358.605 103.481 395.31 120.632C405.624 125.486 415.559 131.106 425.033 137.445Z" fill="url(#paint3_linear_30_366)"/>
<defs>
<linearGradient id="paint0_linear_30_366" x1="15.3444" y1="556.027" x2="64.3609" y2="692.167" gradientUnits="userSpaceOnUse">
<stop stop-color="#FFD8D8"/>
<stop offset="1" stop-color="#FFF8F8"/>
</linearGradient>
<linearGradient id="paint1_linear_30_366" x1="661.755" y1="211.034" x2="225.138" y2="-26.3146" gradientUnits="userSpaceOnUse">
<stop stop-color="#FFF8F8"/>
<stop offset="1" stop-color="#FFCFCF"/>
</linearGradient>
<linearGradient id="paint2_linear_30_366" x1="642.943" y1="147.368" x2="485.223" y2="91.8457" gradientUnits="userSpaceOnUse">
<stop stop-color="#FFD7D7"/>
<stop offset="1" stop-color="#FFF9F9"/>
</linearGradient>
<linearGradient id="paint3_linear_30_366" x1="611.047" y1="614.992" x2="12.6172" y2="224.922" gradientUnits="userSpaceOnUse">
<stop stop-color="#FFCFCF"/>
<stop offset="1" stop-color="#FFF8F8"/>
</linearGradient>
</defs>
</svg>
