<svg width="746" height="707" viewBox="0 0 746 707" fill="none" xmlns="http://www.w3.org/2000/svg">
<path d="M298.605 658.265C260.982 674.426 222.505 683.269 180.511 678.096C133.704 672.326 91.0199 635.378 65.7856 597.4C56.41 583.294 48.6386 567.355 48.4129 550.423C47.9058 511.305 84.4511 504.544 116.125 508.809C133.98 511.205 150.688 518.22 167.208 525.17C194.635 536.718 226.217 541.216 251.23 558.071C259.625 563.745 266.111 570.797 275.69 574.698C290.591 580.771 307.293 583.008 322.544 588.426C335.567 593.079 350.313 601.168 351.232 614.961C352.157 629.108 337.987 639.086 325.386 645.564C316.469 650.176 307.569 654.431 298.605 658.265Z" fill="url(#paint0_linear_30_366)"/>
<path d="M124.009 164.665C181.032 67.5665 309.059 21.717 417.091 49.7724C469.185 63.3097 514.213 95.6397 556.01 129.524C592.852 159.388 628.822 191.845 655.246 231.604C673.288 258.743 687.09 291.785 697.338 322.804C712.664 369.251 705.52 430.852 644.155 430.378C629.758 430.269 617.025 425.925 603.329 422.292C592.25 419.345 581.77 422.231 570.398 421.18C541.776 418.544 513.804 409.895 487.2 399.364C432.98 377.877 382.714 347.158 327.201 328.851C281.709 313.872 233.771 307.735 185.972 310.77C165.807 312.053 144.699 314.848 126.074 307.01C80.1685 287.67 96.2442 226.391 110.644 191.57C114.456 182.296 118.922 173.305 124.009 164.665V164.665Z" fill="url(#paint1_linear_30_366)"/>
<path d="M619.613 146.407C630.614 155.137 673.101 178.155 671.919 147.966C671.614 140.445 667.733 133.377 662.739 128.181C657.025 122.216 650.797 119.298 646.177 112.215C640.53 103.668 634.218 95.7003 627.322 88.4156C613.206 73.2378 596.98 59.4219 578.035 54.031C564.747 50.2554 542.836 52.8533 537.754 69.8992C530.349 94.7139 569.065 96.6448 581.36 104.709C593.027 112.341 600.263 126.29 609.818 137.128C612.837 140.545 616.116 143.651 619.613 146.407V146.407Z" fill="url(#paint2_linear_30_366)"/>
<path d="M425.611 129.477C448.458 140.994 466.228 159.306 487.307 173.612C522.4 197.426 568.523 199.755 608.001 215.332C648.256 231.227 679.615 257.966 695.644 298.408C716.349 350.609 722.125 413.917 711.07 469.693C698.894 531.09 663.666 573.644 610.077 603.988C556.52 634.314 496.071 650.78 435.139 657.341C429.259 657.979 423.381 658.5 417.474 658.923C284.787 668.359 105.056 633.17 50.557 493.527C50.0577 492.251 49.5757 490.975 49.0913 489.679C43.3976 474.097 39.59 457.889 37.7497 441.401C31.0802 382.96 37.117 317.58 54.0835 261.279C65.4927 223.375 93.2193 190.146 123.133 165.806C165.161 131.612 218.414 120.109 271.69 112.858C311.141 107.49 355.649 103.565 394.117 116.278C404.93 119.884 415.458 124.296 425.611 129.477Z" fill="url(#paint3_linear_30_366)"/>
<defs>
<linearGradient id="paint0_linear_30_366" x1="45.3454" y1="556.027" x2="94.3619" y2="692.167" gradientUnits="userSpaceOnUse">
<stop stop-color="#FFD8D8"/>
<stop offset="1" stop-color="#FFF8F8"/>
</linearGradient>
<linearGradient id="paint1_linear_30_366" x1="691.756" y1="211.034" x2="255.139" y2="-26.3146" gradientUnits="userSpaceOnUse">
<stop stop-color="#FFF8F8"/>
<stop offset="1" stop-color="#FFCFCF"/>
</linearGradient>
<linearGradient id="paint2_linear_30_366" x1="672.944" y1="147.368" x2="515.224" y2="91.8459" gradientUnits="userSpaceOnUse">
<stop stop-color="#FFD7D7"/>
<stop offset="1" stop-color="#FFF9F9"/>
</linearGradient>
<linearGradient id="paint3_linear_30_366" x1="666.521" y1="581.82" x2="26.3527" y2="264.871" gradientUnits="userSpaceOnUse">
<stop stop-color="#FFCFCF"/>
<stop offset="1" stop-color="#FFF8F8"/>
</linearGradient>
</defs>
</svg>
