<svg width="328" height="328" viewBox="0 0 328 328" fill="none" xmlns="http://www.w3.org/2000/svg">
<path d="M212.683 143.532C214.284 147.342 218.671 149.133 222.481 147.532L238.171 140.94C246.158 137.584 254.818 136.099 263.461 136.701C266.037 136.881 268.705 136.393 271.214 135.136C277.862 131.805 281.07 123.913 278.632 116.889C275.77 108.642 266.606 104.643 258.686 107.971C256.54 108.872 254.715 110.215 253.272 111.85C247.48 118.411 240.44 123.753 232.371 127.144L216.684 133.735C212.874 135.335 211.083 139.722 212.683 143.532Z" fill="#FB4C47"/>
<path d="M138.024 227.6C134.86 226.308 131.249 227.825 129.958 230.989L124.639 244.015C121.931 250.647 117.736 256.577 112.332 261.278C110.721 262.679 109.446 264.524 108.715 266.726C106.775 272.559 109.514 279.048 115.045 281.73C121.539 284.878 129.235 281.859 131.92 275.283C132.647 273.502 132.929 271.65 132.817 269.85C132.368 262.628 133.36 255.39 136.096 248.691L141.413 235.666C142.704 232.503 141.187 228.891 138.024 227.6V227.6Z" fill="#C63F3B"/>
<path d="M185.997 110.113C189.307 111.464 193.086 109.876 194.437 106.566L200.003 92.9351C202.836 85.9957 207.226 79.7901 212.881 74.8708C214.567 73.404 215.901 71.4736 216.666 69.1697C218.696 63.0656 215.83 56.2751 210.041 53.4693C203.246 50.1752 195.193 53.3345 192.383 60.2156C191.622 62.0796 191.328 64.0176 191.444 65.9005C191.915 73.4579 190.876 81.0325 188.014 88.0427L182.45 101.672C181.099 104.982 182.686 108.761 185.997 110.113V110.113Z" fill="#C63F3B"/>
<path d="M184.456 212.681C180.646 214.282 178.855 218.668 180.456 222.479L187.048 238.168C190.404 246.156 191.888 254.816 191.287 263.458C191.107 266.035 191.595 268.703 192.852 271.212C196.182 277.86 204.075 281.067 211.099 278.63C219.345 275.768 223.345 266.604 220.017 258.683C219.116 256.538 217.773 254.713 216.138 253.27C209.577 247.477 204.234 240.438 200.844 232.369L194.253 216.682C192.653 212.872 188.266 211.081 184.456 212.681V212.681Z" fill="#FB4C47"/>
<path d="M216.135 253.271C209.574 247.478 204.232 240.439 200.842 232.37L194.25 216.682C192.65 212.872 188.263 211.081 184.453 212.682C180.643 214.283 178.852 218.669 180.453 222.479L187.044 238.167C190.434 246.236 195.776 253.275 202.338 259.068C203.972 260.511 205.315 262.336 206.217 264.482C208.361 269.584 207.46 275.201 204.345 279.318C206.568 279.606 208.876 279.402 211.097 278.631C219.343 275.769 223.343 266.605 220.015 258.684C219.113 256.539 217.77 254.714 216.135 253.271V253.271Z" fill="#C63F3B"/>
<path d="M100.538 157.132C112.984 151.902 118.835 137.573 113.605 125.127C108.376 112.68 94.0467 106.83 81.6002 112.059C69.1538 117.289 63.3033 131.618 68.5327 144.064C73.7621 156.511 88.0913 162.361 100.538 157.132Z" fill="#FF8F8C"/>
<path d="M81.6055 112.058C79.1987 113.07 77.0418 114.424 75.1603 116.037C85.4557 115.14 95.5945 120.884 99.8126 130.923C104.031 140.962 101.037 152.224 93.1902 158.95C95.6585 158.735 98.1357 158.142 100.543 157.131C112.989 151.901 118.84 137.572 113.61 125.126C108.381 112.679 94.0516 106.829 81.6055 112.058V112.058Z" fill="#FB4C47"/>
<path d="M194.914 237.576C235.555 220.501 254.658 173.713 237.583 133.072C220.507 92.4317 173.719 73.3282 133.079 90.4036C92.4379 107.479 73.3345 154.267 90.4099 194.908C107.485 235.548 154.273 254.652 194.914 237.576Z" fill="#FB4C47"/>
<path d="M133.079 90.4032C130.752 91.3808 128.5 92.4601 126.317 93.6263C165.183 81.3891 207.688 100.555 223.786 138.869C239.883 177.182 223.823 220.955 187.88 240.15C190.24 239.407 192.588 238.553 194.915 237.576C235.556 220.5 254.659 173.713 237.584 133.072C220.508 92.4308 173.72 73.3277 133.079 90.4032V90.4032Z" fill="#C63F3B"/>
<path d="M187.305 142.189C195.56 138.721 199.44 129.217 195.972 120.962C192.503 112.706 182.999 108.826 174.744 112.295C166.489 115.763 162.609 125.267 166.077 133.522C169.545 141.777 179.049 145.658 187.305 142.189Z" fill="#C63F3B"/>
<path d="M174.743 112.295C172.254 113.341 170.166 114.938 168.553 116.882C174.383 117.366 179.75 120.993 182.173 126.759C184.595 132.525 183.429 138.897 179.695 143.399C182.212 143.609 184.814 143.235 187.303 142.189C195.558 138.721 199.439 129.217 195.97 120.962C192.502 112.707 182.998 108.826 174.743 112.295V112.295Z" fill="white"/>
<path d="M154.023 213.906C159.611 211.558 162.238 205.125 159.89 199.537C157.542 193.948 151.108 191.322 145.52 193.67C139.932 196.018 137.305 202.451 139.653 208.039C142.001 213.628 148.435 216.254 154.023 213.906Z" fill="white"/>
<path d="M242.786 211.33C250.406 208.128 253.988 199.355 250.787 191.735C247.585 184.115 238.812 180.533 231.192 183.735C223.572 186.936 219.99 195.709 223.191 203.329C226.393 210.95 235.166 214.531 242.786 211.33Z" fill="#FB4C47"/>
<path d="M231.191 183.735C228.677 184.791 226.606 186.456 225.07 188.484C230.195 189.137 234.843 192.426 236.988 197.533C239.134 202.639 238.23 208.26 235.109 212.379C237.633 212.701 240.272 212.387 242.786 211.331C250.406 208.129 253.988 199.356 250.786 191.736C247.585 184.116 238.812 180.533 231.191 183.735V183.735Z" fill="#C63F3B"/>
<path d="M115.3 184.448C116.901 188.258 115.11 192.645 111.3 194.246L95.6101 200.838C87.6228 204.194 80.5012 209.34 74.8819 215.934C73.2066 217.9 70.9906 219.464 68.3369 220.376C61.3056 222.793 53.4236 219.56 50.1128 212.903C46.226 205.087 49.7831 195.743 57.7039 192.415C59.8495 191.513 62.0861 191.15 64.2637 191.263C73.0039 191.718 81.7468 190.43 89.8157 187.04L105.503 180.448C109.313 178.847 113.699 180.638 115.3 184.448Z" fill="#C63F3B"/>
<path d="M143.544 115.297C147.354 113.697 149.145 109.31 147.544 105.5L140.952 89.8102C137.596 81.8229 136.112 73.1629 136.713 64.5202C136.893 61.9435 136.405 59.2755 135.148 56.7665C131.818 50.119 123.925 46.9113 116.901 49.3489C108.655 52.2107 104.655 61.3744 107.983 69.2952C108.884 71.4408 110.227 73.2659 111.862 74.7089C118.423 80.5012 123.766 87.5409 127.156 95.6099L133.747 111.297C135.347 115.107 139.734 116.898 143.544 115.297Z" fill="#FB4C47"/>
<path d="M135.149 56.7664C131.819 50.1188 123.926 46.9112 116.902 49.3488C113.968 50.3667 111.576 52.1849 109.855 54.4588C114.663 55.0824 119.074 58.018 121.351 62.5636C122.608 65.0725 123.096 67.7406 122.917 70.3173C122.315 78.9599 123.799 87.62 127.155 95.6073L133.747 111.297C135.348 115.107 139.734 116.898 143.545 115.297C147.355 113.696 149.146 109.31 147.545 105.5L140.953 89.8101C137.597 81.8228 136.112 73.1627 136.714 64.5201C136.894 61.9434 136.406 59.2751 135.149 56.7664V56.7664Z" fill="#C63F3B"/>
<path d="M260.247 108.36C258.086 109.222 256.238 110.53 254.766 112.137C254.505 112.421 254.239 112.701 253.974 112.98C259.412 113.749 264.264 117.493 266.121 123.178C267.708 128.04 266.616 133.262 263.595 137.092C263.894 137.114 264.192 137.132 264.491 137.158C267.062 137.384 269.737 136.946 272.267 135.736C278.971 132.529 282.321 124.702 280.014 117.638C277.306 109.345 268.222 105.18 260.247 108.36V108.36Z" fill="#C63F3B"/>
</svg>
