<svg width="49" height="35" viewBox="0 0 49 35" fill="none" xmlns="http://www.w3.org/2000/svg">
<rect x="0.336538" y="0.336538" width="48.3269" height="34.3269" rx="2.35577" fill="white" stroke="#F5F5F5" stroke-width="0.673077"/>
<mask id="mask0_46_439" style="mask-type:luminance" maskUnits="userSpaceOnUse" x="0" y="0" width="49" height="35">
<rect x="0.336538" y="0.336538" width="48.3269" height="34.3269" rx="2.35577" fill="white" stroke="white" stroke-width="0.673077"/>
</mask>
<g mask="url(#mask0_46_439)">
<path fill-rule="evenodd" clip-rule="evenodd" d="M0 11.6667H49V0H0V11.6667Z" fill="#38BB56"/>
<path fill-rule="evenodd" clip-rule="evenodd" d="M0 35.0002H49V23.3335H0V35.0002Z" fill="#DE1B27"/>
<path fill-rule="evenodd" clip-rule="evenodd" d="M2.78075 9.33301C2.53293 9.33301 2.33203 9.53391 2.33203 9.78173V11.2176C2.33203 11.4654 2.53293 11.6663 2.78075 11.6663H4.21665C4.46447 11.6663 4.66536 11.4654 4.66536 11.2176V9.78173C4.66536 9.53391 4.46447 9.33301 4.21665 9.33301H2.78075ZM7.44759 9.33301C7.19977 9.33301 6.99887 9.53391 6.99887 9.78173V11.2176C6.99887 11.4654 7.19977 11.6663 7.44759 11.6663H8.88349C9.13131 11.6663 9.33221 11.4654 9.33221 11.2176V9.78173C9.33221 9.53391 9.13131 9.33301 8.88349 9.33301H7.44759ZM11.6657 9.78173C11.6657 9.53391 11.8666 9.33301 12.1144 9.33301H13.5503C13.7982 9.33301 13.999 9.53391 13.999 9.78173V11.2176C13.999 11.4654 13.7982 11.6663 13.5503 11.6663H12.1144C11.8666 11.6663 11.6657 11.4654 11.6657 11.2176V9.78173ZM16.7813 9.33301C16.5335 9.33301 16.3326 9.53391 16.3326 9.78173V11.2176C16.3326 11.4654 16.5335 11.6663 16.7813 11.6663H18.2172C18.465 11.6663 18.6659 11.4654 18.6659 11.2176V9.78173C18.6659 9.53391 18.465 9.33301 18.2172 9.33301H16.7813ZM20.9994 9.78173C20.9994 9.53391 21.2003 9.33301 21.4481 9.33301H22.884C23.1318 9.33301 23.3327 9.53391 23.3327 9.78173V11.2176C23.3327 11.4654 23.1318 11.6663 22.884 11.6663H21.4481C21.2003 11.6663 20.9994 11.4654 20.9994 11.2176V9.78173ZM26.115 9.33301C25.8671 9.33301 25.6662 9.53391 25.6662 9.78173V11.2176C25.6662 11.4654 25.8671 11.6663 26.115 11.6663H27.5509C27.7987 11.6663 27.9996 11.4654 27.9996 11.2176V9.78173C27.9996 9.53391 27.7987 9.33301 27.5509 9.33301H26.115ZM30.3331 9.78173C30.3331 9.53391 30.534 9.33301 30.7818 9.33301H32.2177C32.4655 9.33301 32.6664 9.53391 32.6664 9.78173V11.2176C32.6664 11.4654 32.4655 11.6663 32.2177 11.6663H30.7818C30.534 11.6663 30.3331 11.4654 30.3331 11.2176V9.78173ZM35.4486 9.33301C35.2008 9.33301 34.9999 9.53391 34.9999 9.78173V11.2176C34.9999 11.4654 35.2008 11.6663 35.4486 11.6663H36.8845C37.1324 11.6663 37.3333 11.4654 37.3333 11.2176V9.78173C37.3333 9.53391 37.1324 9.33301 36.8845 9.33301H35.4486ZM39.6641 9.78173C39.6641 9.53391 39.865 9.33301 40.1129 9.33301H41.5488C41.7966 9.33301 41.9975 9.53391 41.9975 9.78173V11.2176C41.9975 11.4654 41.7966 11.6663 41.5488 11.6663H40.1129C39.865 11.6663 39.6641 11.4654 39.6641 11.2176V9.78173ZM44.7797 9.33301C44.5319 9.33301 44.331 9.53391 44.331 9.78173V11.2176C44.331 11.4654 44.5319 11.6663 44.7797 11.6663H46.2156C46.4634 11.6663 46.6643 11.4654 46.6643 11.2176V9.78173C46.6643 9.53391 46.4634 9.33301 46.2156 9.33301H44.7797ZM2.33203 23.7816C2.33203 23.5338 2.53293 23.3329 2.78075 23.3329H4.21665C4.46447 23.3329 4.66536 23.5338 4.66536 23.7816V25.2175C4.66536 25.4653 4.46447 25.6662 4.21665 25.6662H2.78075C2.53293 25.6662 2.33203 25.4653 2.33203 25.2175V23.7816ZM7.44759 23.3329C7.19977 23.3329 6.99887 23.5338 6.99887 23.7816V25.2175C6.99887 25.4653 7.19977 25.6662 7.44759 25.6662H8.88349C9.13131 25.6662 9.33221 25.4653 9.33221 25.2175V23.7816C9.33221 23.5338 9.13131 23.3329 8.88349 23.3329H7.44759ZM11.6657 23.7816C11.6657 23.5338 11.8666 23.3329 12.1144 23.3329H13.5503C13.7982 23.3329 13.999 23.5338 13.999 23.7816V25.2175C13.999 25.4653 13.7982 25.6662 13.5503 25.6662H12.1144C11.8666 25.6662 11.6657 25.4653 11.6657 25.2175V23.7816ZM16.7813 23.3329C16.5335 23.3329 16.3326 23.5338 16.3326 23.7816V25.2175C16.3326 25.4653 16.5335 25.6662 16.7813 25.6662H18.2172C18.465 25.6662 18.6659 25.4653 18.6659 25.2175V23.7816C18.6659 23.5338 18.465 23.3329 18.2172 23.3329H16.7813ZM20.9994 23.7816C20.9994 23.5338 21.2003 23.3329 21.4481 23.3329H22.884C23.1318 23.3329 23.3327 23.5338 23.3327 23.7816V25.2175C23.3327 25.4653 23.1318 25.6662 22.884 25.6662H21.4481C21.2003 25.6662 20.9994 25.4653 20.9994 25.2175V23.7816ZM26.115 23.3329C25.8671 23.3329 25.6662 23.5338 25.6662 23.7816V25.2175C25.6662 25.4653 25.8671 25.6662 26.115 25.6662H27.5509C27.7987 25.6662 27.9996 25.4653 27.9996 25.2175V23.7816C27.9996 23.5338 27.7987 23.3329 27.5509 23.3329H26.115ZM30.3331 23.7816C30.3331 23.5338 30.534 23.3329 30.7818 23.3329H32.2177C32.4655 23.3329 32.6664 23.5338 32.6664 23.7816V25.2175C32.6664 25.4653 32.4655 25.6662 32.2177 25.6662H30.7818C30.534 25.6662 30.3331 25.4653 30.3331 25.2175V23.7816ZM35.4486 23.3329C35.2008 23.3329 34.9999 23.5338 34.9999 23.7816V25.2175C34.9999 25.4653 35.2008 25.6662 35.4486 25.6662H36.8845C37.1324 25.6662 37.3333 25.4653 37.3333 25.2175V23.7816C37.3333 23.5338 37.1324 23.3329 36.8845 23.3329H35.4486ZM39.6641 23.7816C39.6641 23.5338 39.865 23.3329 40.1129 23.3329H41.5488C41.7966 23.3329 41.9975 23.5338 41.9975 23.7816V25.2175C41.9975 25.4653 41.7966 25.6662 41.5488 25.6662H40.1129C39.865 25.6662 39.6641 25.4653 39.6641 25.2175V23.7816ZM44.7797 23.3329C44.5319 23.3329 44.331 23.5338 44.331 23.7816V25.2175C44.331 25.4653 44.5319 25.6662 44.7797 25.6662H46.2156C46.4634 25.6662 46.6643 25.4653 46.6643 25.2175V23.7816C46.6643 23.5338 46.4634 23.3329 46.2156 23.3329H44.7797Z" fill="white" fill-opacity="0.5"/>
<mask id="path-6-inside-1_46_439" fill="white">
<path fill-rule="evenodd" clip-rule="evenodd" d="M22.1432 14.9121C21.4405 15.5522 20.9995 16.4747 20.9995 17.5001C20.9995 19.4331 22.5665 21.0001 24.4995 21.0001V21.0001C26.4325 21.0001 27.9995 19.4331 27.9995 17.5001C27.9995 16.494 27.575 15.5871 26.8954 14.9487"/>
</mask>
<path d="M21.5388 14.2487C20.6573 15.0517 20.1021 16.2117 20.1021 17.5001H21.8969C21.8969 16.7376 22.2237 16.0528 22.7475 15.5755L21.5388 14.2487ZM20.1021 17.5001C20.1021 19.9287 22.0709 21.8975 24.4995 21.8975V20.1027C23.0622 20.1027 21.8969 18.9375 21.8969 17.5001H20.1021ZM24.4995 21.8975C26.9281 21.8975 28.8969 19.9287 28.8969 17.5001H27.1021C27.1021 18.9375 25.9369 20.1027 24.4995 20.1027V21.8975ZM28.8969 17.5001C28.8969 16.2361 28.3625 15.0955 27.5098 14.2946L26.2809 15.6028C26.7875 16.0787 27.1021 16.7519 27.1021 17.5001H28.8969Z" fill="#D80915" mask="url(#path-6-inside-1_46_439)"/>
<rect x="23.3342" y="16.3333" width="2.33333" height="4.66667" rx="0.897436" fill="#D80915"/>
</g>
</svg>
