<svg width="71" height="71" viewBox="0 0 71 71" fill="none" xmlns="http://www.w3.org/2000/svg">
<g filter="url(#filter0_d_50_684)">
<path d="M48.9203 31.4997C48.9203 32.5498 49.7715 33.4012 50.8217 33.4012H55.1461C57.3475 33.4012 59.5223 33.9058 61.4877 34.8974C62.0737 35.1931 62.7467 35.3414 63.4582 35.2939C65.3432 35.168 66.8715 33.6348 66.9918 31.7494C67.133 29.5359 65.38 27.697 63.1969 27.697C62.6056 27.697 62.0458 27.832 61.5469 28.0729C59.5442 29.0398 57.3693 29.5984 55.1453 29.5984H50.8217C49.7717 29.5983 48.9203 30.4497 48.9203 31.4997Z" fill="#FB4C47"/>
<path d="M23.1539 43.8447C22.5401 43.2308 21.5447 43.2308 20.9309 43.8447L18.4028 46.3728C17.1158 47.6597 15.5495 48.6361 13.8208 49.2054C13.3054 49.3751 12.8252 49.6818 12.4372 50.1255C11.4087 51.3011 11.4116 53.0908 12.4434 54.2634C13.6548 55.6401 15.7547 55.6903 17.0309 54.414C17.3766 54.0684 17.6249 53.6622 17.7759 53.2297C18.3814 51.4937 19.3264 49.8957 20.6265 48.5956L23.1541 46.068C23.7678 45.4539 23.7678 44.4586 23.1539 43.8447V43.8447Z" fill="#FB4C47"/>
<path d="M45.9569 21.0433C46.5993 21.6857 47.6407 21.6857 48.2832 21.0433L50.9286 18.3979C52.2754 17.0512 53.9145 16.0295 55.7234 15.4337C56.2627 15.2561 56.7652 14.9351 57.1712 14.4708C58.2474 13.2406 58.2444 11.3678 57.1646 10.1408C55.897 8.7003 53.6995 8.64776 52.3641 9.98318C52.0023 10.3449 51.7426 10.7699 51.5846 11.2225C50.9509 13.0391 49.9621 14.7113 48.6017 16.0718L45.9567 18.7168C45.3144 19.3594 45.3144 20.4008 45.9569 21.0433V21.0433Z" fill="#FB4C47"/>
<path d="M35.4989 44.9199C34.4488 44.9199 33.5975 45.7712 33.5975 46.8213V51.1457C33.5975 53.3471 33.0929 55.5219 32.1013 57.4873C31.8056 58.0732 31.6573 58.7463 31.7048 59.4577C31.8307 61.3428 33.3638 62.871 35.2493 62.9914C37.4627 63.1326 39.3016 61.3796 39.3016 59.1965C39.3016 58.6052 39.1667 58.0454 38.9257 57.5465C37.9588 55.5438 37.4002 53.3688 37.4002 51.1449V46.8213C37.4003 45.7713 36.549 44.9199 35.4989 44.9199V44.9199Z" fill="#FFA2A1"/>
<path d="M38.9284 57.5466C37.9615 55.5439 37.4029 53.369 37.4029 51.145V46.8213C37.4029 45.7713 36.5517 44.9199 35.5015 44.9199C34.4513 44.9199 33.6 45.7712 33.6 46.8213V51.145C33.6 53.369 34.1587 55.5438 35.1256 57.5466C35.3665 58.0456 35.5015 58.6053 35.5015 59.1967C35.5015 60.6031 34.7376 61.8301 33.6027 62.488C34.095 62.7743 34.6558 62.9535 35.2519 62.9915C37.4654 63.1328 39.3043 61.3797 39.3043 59.1967C39.3043 58.6053 39.1693 58.0456 38.9284 57.5466V57.5466Z" fill="#FB4C47"/>
<path d="M21.3091 23.647C24.7394 23.647 27.5203 20.8662 27.5203 17.4358C27.5203 14.0055 24.7394 11.2246 21.3091 11.2246C17.8787 11.2246 15.0979 14.0055 15.0979 17.4358C15.0979 20.8662 17.8787 23.647 21.3091 23.647Z" fill="#FF807E"/>
<path d="M21.308 11.2246C20.6447 11.2246 20.0061 11.3297 19.4066 11.5223C21.9067 12.3255 23.7164 14.6689 23.7164 17.4358C23.7164 20.2028 21.9067 22.5462 19.4066 23.3494C20.006 23.542 20.6446 23.647 21.308 23.647C24.7384 23.647 27.5193 20.8662 27.5193 17.4358C27.5193 14.0054 24.7383 11.2246 21.308 11.2246V11.2246Z" fill="#FB4C47"/>
<path d="M35.5002 51.7812C46.7014 51.7812 55.7817 42.7009 55.7817 31.4997C55.7817 20.2986 46.7014 11.2183 35.5002 11.2183C24.2991 11.2183 15.2188 20.2986 15.2188 31.4997C15.2188 42.7009 24.2991 51.7812 35.5002 51.7812Z" fill="#FFBFBE"/>
<path d="M35.5015 11.2183C34.8601 11.2183 34.2262 11.2494 33.6 11.3077C43.9094 12.2665 51.9802 20.94 51.9802 31.4997C51.9802 42.0595 43.9095 50.733 33.6002 51.6918C34.2262 51.75 34.8603 51.7812 35.5016 51.7812C46.7028 51.7812 55.7831 42.701 55.7831 31.4997C55.7831 20.2985 46.7027 11.2183 35.5015 11.2183V11.2183Z" fill="#FFA2A2"/>
<path d="M43.1035 28.6866C45.3788 28.6866 47.2232 26.8422 47.2232 24.567C47.2232 22.2917 45.3788 20.4473 43.1035 20.4473C40.8283 20.4473 38.9838 22.2917 38.9838 24.567C38.9838 26.8422 40.8283 28.6866 43.1035 28.6866Z" fill="#FFA2A1"/>
<path d="M43.1066 20.4473C42.4205 20.4473 41.7741 20.616 41.2051 20.9126C42.5231 21.5998 43.4234 22.9778 43.4234 24.567C43.4234 26.1561 42.5231 27.5342 41.2051 28.2213C41.7741 28.5179 42.4205 28.6866 43.1066 28.6866C45.3818 28.6866 47.2263 26.8422 47.2263 24.567C47.2263 22.2917 45.3818 20.4473 43.1066 20.4473V20.4473Z" fill="#FF807E"/>
<path d="M28.2483 42.2112C29.7885 42.2112 31.037 40.9627 31.037 39.4225C31.037 37.8823 29.7885 36.6338 28.2483 36.6338C26.7081 36.6338 25.4596 37.8823 25.4596 39.4225C25.4596 40.9627 26.7081 42.2112 28.2483 42.2112Z" fill="#FF807E"/>
<path d="M49.2972 50.3442C51.3974 50.3442 53.0999 48.6417 53.0999 46.5415C53.0999 44.4413 51.3974 42.7388 49.2972 42.7388C47.197 42.7388 45.4945 44.4413 45.4945 46.5415C45.4945 48.6417 47.197 50.3442 49.2972 50.3442Z" fill="#FB4C47"/>
<path d="M49.2977 42.7388C48.6048 42.7388 47.9558 42.9251 47.3963 43.2488C48.5326 43.9063 49.2977 45.1342 49.2977 46.5416C49.2977 47.949 48.5326 49.1768 47.3963 49.8344C47.9558 50.1582 48.6048 50.3445 49.2977 50.3445C51.398 50.3445 53.1004 48.6419 53.1004 46.5417C53.1004 44.4416 51.398 42.7388 49.2977 42.7388V42.7388Z" fill="#FF807E"/>
<path d="M22.0794 31.4997C22.0794 32.5498 21.2282 33.4012 20.178 33.4012H15.8537C13.6523 33.4012 11.4775 33.9058 9.51205 34.8974C8.92611 35.1931 8.25305 35.3414 7.5416 35.2939C5.65654 35.168 4.12832 33.6348 4.00798 31.7494C3.86672 29.5359 5.61975 27.697 7.80283 27.697C8.39418 27.697 8.95392 27.832 9.45287 28.0729C11.4556 29.0398 13.6305 29.5984 15.8544 29.5984H20.1781C21.2281 29.5983 22.0794 30.4497 22.0794 31.4997Z" fill="#FB4C47"/>
<path d="M35.4988 18.0794C36.5489 18.0794 37.4002 17.2282 37.4002 16.178V11.8537C37.4002 9.65229 37.9048 7.47746 38.8965 5.51205C39.1921 4.92611 39.3404 4.25305 39.2929 3.5416C39.167 1.65654 37.6339 0.128316 35.7485 0.00797766C33.535 -0.133279 31.6961 1.61975 31.6961 3.80283C31.6961 4.39418 31.8311 4.95392 32.072 5.45287C33.0389 7.45556 33.5975 9.63051 33.5975 11.8544V16.1781C33.5974 17.2281 34.4487 18.0794 35.4988 18.0794Z" fill="#FFA2A1"/>
<path d="M39.2939 3.54159C39.168 1.65653 37.6348 0.128306 35.7494 0.00796756C34.9619 -0.0423581 34.2225 0.148116 33.5957 0.51147C34.6606 1.13076 35.4049 2.25256 35.491 3.54159C35.5385 4.25304 35.3902 4.9261 35.0946 5.51204C34.1029 7.47745 33.5983 9.65228 33.5983 11.8537V16.178C33.5983 17.2281 34.4495 18.0794 35.4997 18.0794C36.5499 18.0794 37.4012 17.2282 37.4012 16.178V11.8537C37.4012 9.65228 37.9058 7.47745 38.8974 5.51204C39.1931 4.9261 39.3415 4.25304 39.2939 3.54159V3.54159Z" fill="#FB4C47"/>
</g>
<defs>
<filter id="filter0_d_50_684" x="0" y="0" width="70.9998" height="70.9995" filterUnits="userSpaceOnUse" color-interpolation-filters="sRGB">
<feFlood flood-opacity="0" result="BackgroundImageFix"/>
<feColorMatrix in="SourceAlpha" type="matrix" values="0 0 0 0 0 0 0 0 0 0 0 0 0 0 0 0 0 0 127 0" result="hardAlpha"/>
<feOffset dy="4"/>
<feGaussianBlur stdDeviation="2"/>
<feComposite in2="hardAlpha" operator="out"/>
<feColorMatrix type="matrix" values="0 0 0 0 0 0 0 0 0 0 0 0 0 0 0 0 0 0 0.25 0"/>
<feBlend mode="normal" in2="BackgroundImageFix" result="effect1_dropShadow_50_684"/>
<feBlend mode="normal" in="SourceGraphic" in2="effect1_dropShadow_50_684" result="shape"/>
</filter>
</defs>
</svg>
