<svg width="565" height="585" viewBox="0 0 565 585" fill="none" xmlns="http://www.w3.org/2000/svg">
<path d="M214.421 557.802C184.293 568.477 153.874 573.409 121.426 567.244C85.2605 560.37 53.8915 529.42 36.1669 498.555C29.5813 487.09 24.3384 474.28 25.0235 461.08C26.6175 430.584 55.4273 427.176 79.8823 432.109C93.6676 434.883 106.325 441.197 118.84 447.45C139.616 457.84 163.987 462.949 182.614 477.35C188.864 482.196 193.558 488.018 200.821 491.544C212.119 497.033 225.015 499.624 236.619 504.62C246.526 508.906 257.6 515.957 257.615 526.747C257.616 537.813 246.071 544.865 235.927 549.271C228.747 552.409 221.598 555.271 214.421 557.802Z" fill="url(#paint0_linear_42_181)"/>
<path d="M103.525 164.448C152.879 91.7148 254.934 62.5112 337.656 89.8572C377.545 103.05 410.975 130.523 441.808 159.041C468.987 184.176 495.355 211.287 513.915 243.6C526.589 265.656 535.659 292.095 542.065 316.777C551.641 353.735 542.944 401.355 495.17 397.866C483.961 397.048 474.263 393.018 463.78 389.491C455.301 386.632 446.991 388.347 438.186 386.951C416.026 383.442 394.678 375.283 374.49 365.727C333.35 346.233 295.758 319.75 253.448 302.668C218.775 288.687 181.747 281.469 144.361 281.403C128.589 281.377 112.005 282.481 97.8968 275.429C63.1229 258.03 78.7604 211.116 91.7473 184.725C95.188 177.696 99.1239 170.919 103.525 164.448V164.448Z" fill="url(#paint1_linear_42_181)"/>
<path d="M490.489 175.426C498.615 182.785 530.538 202.875 531.153 179.3C531.298 173.426 528.634 167.724 525.009 163.422C520.861 158.485 516.158 155.896 512.919 150.144C508.956 143.199 504.445 136.672 499.443 130.647C489.22 118.107 477.283 106.521 462.8 101.358C452.642 97.7415 435.443 98.6511 430.618 111.67C423.588 130.622 453.647 134.095 462.814 141.002C471.514 147.539 476.44 158.773 483.332 167.7C485.51 170.515 487.906 173.102 490.489 175.426V175.426Z" fill="url(#paint2_linear_42_181)"/>
<path d="M340.239 152.375C357.449 162.508 370.359 177.675 386.05 189.89C412.175 210.223 447.982 214.383 477.941 228.524C508.488 242.951 531.555 265.373 541.984 297.69C555.457 339.403 556.738 389.008 545.291 431.892C532.685 479.096 503.081 510.452 459.797 531.363C416.537 552.261 368.615 562.013 320.82 564.025C316.207 564.224 311.603 564.33 306.98 564.36C203.147 564.963 64.9397 528.415 29.589 416.873C29.265 415.853 28.9545 414.834 28.643 413.801C25.0004 401.374 22.8587 388.555 22.2635 375.619C20.04 329.759 28.0665 279.14 44.1448 236.148C54.9589 207.204 78.2454 182.731 102.783 165.293C137.259 140.795 179.323 134.543 221.19 131.604C252.193 129.429 287.06 128.634 316.378 140.492C324.617 143.851 332.593 147.823 340.239 152.375Z" fill="url(#paint3_linear_42_181)"/>
<path d="M412.553 554.465C279.464 593.163 168.556 555.847 129.738 532.352L93.6932 504.71L106.17 483.979L183.806 477.069L312.736 470.159L416.712 490.89L524.848 454.956H535.938C519.302 511.344 446.75 544.79 412.553 554.465Z" fill="#FB4C47"/>
<path d="M138.119 479.7H454.999C454.999 479.7 466.094 297.504 425.724 270.844C385.359 244.189 196.577 249.756 154.737 272.523C112.896 295.296 138.119 479.7 138.119 479.7Z" fill="#FB4C47"/>
<path d="M190.878 232.455C190.416 232.455 189.953 232.306 189.573 231.987C188.698 231.277 168.38 214.175 179.503 179.707C183.384 167.654 187.189 159.119 190.548 151.582C196.599 138.015 200.971 128.214 201.797 107.263C201.846 106.124 202.733 105.27 203.944 105.276C205.084 105.325 205.97 106.283 205.926 107.423C205.062 129.172 200.327 139.804 194.325 153.261C191.005 160.705 187.25 169.135 183.423 180.973C173.165 212.787 191.99 228.639 192.183 228.793C193.064 229.515 193.202 230.814 192.475 231.695C192.067 232.196 191.473 232.455 190.878 232.455Z" fill="#000C3E"/>
<path d="M303.359 26.8879C302.825 41.1927 290.794 52.348 276.49 51.8139C262.19 51.2798 251.029 39.249 251.564 24.9497C252.103 10.645 264.128 -0.515841 278.433 0.018248C292.732 0.557843 303.893 12.5831 303.359 26.8879Z" fill="#000C3E"/>
<path d="M188.557 222.389C188.557 222.389 196.161 238.07 227.204 243.581C258.252 249.098 282.617 237.866 306.585 246.56C330.553 255.249 365.18 243.923 372.046 233.852C378.907 223.782 377.47 112.256 358.573 93.552C339.671 74.8534 240.65 59.2437 219.192 81.1248C197.735 103.011 174.946 209.829 188.557 222.389Z" fill="#000C3E"/>
<path d="M367.808 134.4C366.04 181.532 326.402 218.312 279.27 216.545C232.138 214.777 195.358 175.139 197.125 128.002C198.892 80.8697 238.531 44.0947 285.663 45.8621C332.795 47.6241 369.575 87.2678 367.808 134.4Z" fill="#000C3E"/>
<path d="M317.497 205.807C317.497 205.807 323.042 272.315 317.497 279.704C311.953 287.093 276.851 281.554 267.618 279.704C258.378 277.859 254.684 205.807 260.223 205.807C265.768 205.807 316.434 190.979 317.497 205.807Z" fill="#FFCEB0"/>
<path d="M212.739 128C212.739 128 216.252 231.663 286.333 236.139C356.42 240.61 356.348 94.5558 330.987 80.664C305.621 66.7722 199.783 69.3766 212.739 128Z" fill="#FFCEB0"/>
<path d="M284.698 150.19C284.698 150.19 298.083 182.097 294.636 184.212C291.195 186.326 281.113 185.946 278.399 183.601C275.684 181.255 279.224 146.622 284.698 150.19Z" fill="#EE9B68"/>
<path d="M263.71 171.497C263.534 175.131 260.445 177.928 256.811 177.752C253.182 177.575 250.38 174.487 250.556 170.853C250.732 167.224 253.821 164.421 257.455 164.598C261.084 164.774 263.886 167.863 263.71 171.497Z" fill="#41294A"/>
<path d="M320.244 168.396C320.068 172.03 316.979 174.827 313.345 174.651C309.717 174.475 306.914 171.386 307.09 167.752C307.267 164.123 310.355 161.321 313.989 161.497C317.618 161.673 320.421 164.762 320.244 168.396Z" fill="#41294A"/>
<path d="M267.922 72.7161C267.922 72.7161 242.793 84.868 238.013 107.68C233.229 130.497 235.706 188.911 209.079 186.229C209.079 186.229 157.526 70.6238 267.922 72.7161" fill="#000C3E"/>
<path d="M281.167 73.2132C278.888 74.8485 307.079 74.7769 323.195 94.318C339.317 113.854 343.144 162.687 345.632 163.59C348.127 164.498 358.082 103.084 340.407 84.6328C322.738 66.182 294.14 63.9245 281.167 73.2132Z" fill="#000C3E"/>
<path d="M261.198 226.685C261.198 226.685 288.464 242.19 316.776 227.698C316.776 227.698 318.979 245.103 316.776 249.117C314.574 253.131 269.733 256 260.906 236.216C260.906 236.216 258.649 225.826 261.198 226.685" fill="#EE9B68"/>
<path d="M339.59 167.755C339.59 167.755 346.302 141.805 358.003 151.039C369.709 160.278 359.121 187.396 347.552 189.857C335.984 192.318 333.198 181.135 339.59 167.755Z" fill="#FFCEB0"/>
<path d="M229.053 163.613C229.053 163.613 224.302 137.233 211.941 145.569C199.579 153.9 208.108 181.739 219.462 185.059C230.815 188.373 234.422 177.433 229.053 163.613Z" fill="#FFCEB0"/>
<path d="M311.036 134.316C311.036 134.316 323.578 128.073 330.99 137.648C337.509 146.061 322.345 139.008 316.674 139.944C311.008 140.88 303.569 140.235 311.036 134.316Z" fill="#41294A"/>
<path d="M261.744 135.525C261.744 135.525 249.179 129.325 241.801 138.927C235.315 147.363 250.451 140.254 256.122 141.168C261.793 142.088 269.232 141.416 261.744 135.525Z" fill="#41294A"/>
<path d="M256.579 146.103C245.754 146.103 236.955 154.588 236.542 165.424C236.344 170.776 238.244 175.891 241.889 179.823C245.534 183.748 250.489 186.022 255.847 186.221L256.617 186.237C267.448 186.237 276.247 177.752 276.654 166.922C276.858 161.57 274.958 156.449 271.313 152.524C267.668 148.592 262.707 146.318 257.35 146.12L256.579 146.103ZM256.617 188.99L255.742 188.974C249.652 188.748 244.014 186.16 239.868 181.695C235.722 177.224 233.563 171.409 233.789 165.314C234.257 153.003 244.267 143.35 256.579 143.35L257.454 143.367C263.544 143.593 269.182 146.181 273.328 150.646C277.474 155.122 279.633 160.931 279.407 167.032C278.944 179.344 268.934 188.99 256.617 188.99Z" fill="#FFFCF6"/>
<path d="M313.523 142.906C302.698 142.906 293.899 151.391 293.486 162.227C293.073 173.283 301.734 182.616 312.79 183.023L313.561 183.04C324.386 183.04 333.185 174.555 333.598 163.719C333.796 158.367 331.897 153.252 328.251 149.321C324.606 145.395 319.651 143.121 314.294 142.922L313.523 142.906ZM313.561 185.793L312.686 185.776C300.11 185.308 290.265 174.692 290.733 162.117C291.201 149.805 301.211 140.153 313.523 140.153L314.398 140.169C320.488 140.395 326.126 142.983 330.272 147.448C334.418 151.919 336.577 157.734 336.351 163.829C335.883 176.141 325.873 185.793 313.561 185.793Z" fill="#FFFCF6"/>
<path d="M235.841 162.172C235.675 162.172 235.499 162.139 235.334 162.073L226.992 158.78C226.282 158.499 225.935 157.701 226.216 156.996C226.497 156.286 227.284 155.945 228 156.22L236.347 159.518C237.058 159.793 237.399 160.597 237.118 161.302C236.903 161.842 236.391 162.172 235.841 162.172Z" fill="#FFFCF6"/>
<path d="M334.183 158.53C333.589 158.53 333.032 158.139 332.862 157.528C332.653 156.801 333.077 156.041 333.809 155.832L345.405 152.512C346.148 152.308 346.902 152.727 347.106 153.459C347.315 154.191 346.891 154.951 346.159 155.16L334.558 158.475C334.437 158.514 334.304 158.53 334.183 158.53Z" fill="#FFFCF6"/>
<path d="M276.424 67.275C276.424 67.275 279.584 123.464 295.073 128.563C310.561 133.667 348.641 132.269 350.48 126.124C352.319 119.974 320.951 70.518 298.442 62.5893C258.969 48.681 224.898 112.86 229.402 128.321C233.906 143.787 267.823 130.253 275.058 128.266C282.299 126.278 274.975 78.3807 276.424 67.275Z" fill="#000C3E"/>
<path d="M278.039 167.145C277.323 167.145 276.723 166.595 276.668 165.879C276.607 165.119 277.174 164.458 277.929 164.398L292.057 163.297C292.883 163.164 293.483 163.809 293.533 164.557C293.593 165.317 293.032 165.978 292.272 166.039L278.149 167.14C278.11 167.145 278.072 167.145 278.039 167.145Z" fill="#FFFCF6"/>
<path d="M261.275 51.8511C260.95 51.8511 260.631 51.774 260.328 51.6198C252.752 47.7105 248.231 42.2595 246.899 35.421C243.975 20.4114 257.608 4.32267 258.192 3.64542C258.94 2.76996 260.234 2.67085 261.104 3.42518C261.969 4.1685 262.068 5.46793 261.324 6.33239C261.192 6.48656 248.407 21.6007 250.957 34.6391C252.036 40.1727 255.829 44.6491 262.222 47.9528C263.235 48.4759 263.632 49.7202 263.108 50.7333C262.745 51.4436 262.024 51.8511 261.275 51.8511Z" fill="#000C3E"/>
<path d="M291.159 56.4639C290.575 56.4639 289.986 56.2106 289.579 55.7205C288.847 54.8506 288.962 53.5512 289.838 52.8188C289.986 52.6867 305.089 39.8741 304.715 26.5934C304.561 20.9607 301.555 15.9227 295.79 11.6169C294.876 10.9342 294.688 9.64023 295.371 8.72622C296.059 7.80671 297.342 7.63051 298.262 8.30776C305.089 13.4119 308.657 19.5291 308.845 26.4943C309.263 41.7792 293.169 55.4122 292.481 55.9848C292.095 56.3097 291.627 56.4639 291.159 56.4639Z" fill="#41294A"/>
<path d="M365.168 230.712C364.551 230.712 363.94 230.437 363.533 229.914C362.834 229.011 362.993 227.717 363.896 227.018C364.607 226.462 381.323 213.126 376.951 190.661C375.239 181.863 372.1 172.122 368.769 161.809C362.971 143.843 356.975 125.26 356.871 107.321C356.865 106.182 357.785 105.251 358.924 105.246H358.935C360.07 105.246 360.995 106.165 361 107.299C361.099 124.599 366.996 142.874 372.695 160.543C376.065 170.977 379.247 180.827 381.004 189.874C385.871 214.882 367.222 229.666 366.429 230.283C366.049 230.575 365.609 230.712 365.168 230.712Z" fill="#000C3E"/>
<path d="M372.052 136.533C371.969 136.533 371.887 136.528 371.799 136.517C370.67 136.379 369.866 135.35 370.004 134.215C372.79 111.53 368.467 92.9694 357.147 79.0501C338.911 56.6238 308.352 53.8323 308.044 53.8157C306.909 53.7166 306.067 52.72 306.155 51.5803C306.254 50.4515 307.273 49.5981 308.385 49.6972C309.707 49.8018 340.959 52.6264 360.324 76.4127C372.393 91.235 377.029 110.859 374.1 134.722C373.973 135.763 373.081 136.533 372.052 136.533Z" fill="#000C3E"/>
<path d="M288.245 216.102C285.922 216.102 283.455 216.025 281.605 215.959C280.465 215.909 279.579 214.951 279.623 213.812C279.661 212.672 280.537 211.752 281.765 211.829C286.516 212.017 292.276 212.039 293.322 211.736C294.395 211.433 295.557 212.011 295.904 213.074C296.245 214.131 295.739 215.254 294.698 215.629C293.696 215.986 291.081 216.102 288.245 216.102Z" fill="#EE9B68"/>
<path d="M221.921 178.609C221.723 178.609 221.519 178.581 221.321 178.515C220.225 178.185 219.614 177.034 219.95 175.944C223.705 163.605 214.713 155.412 214.625 155.329C213.777 154.575 213.7 153.264 214.46 152.411C215.215 151.558 216.519 151.48 217.378 152.246C217.83 152.648 228.418 162.311 223.892 177.144C223.628 178.036 222.807 178.609 221.921 178.609Z" fill="#EE9B68"/>
<path d="M344.354 184.659C344.293 184.659 344.238 184.659 344.172 184.654C343.038 184.549 342.196 183.552 342.295 182.413C343.655 166.935 351.336 158.775 351.661 158.434C352.453 157.619 353.747 157.597 354.573 158.379C355.399 159.161 355.427 160.466 354.645 161.291C354.573 161.368 347.636 168.829 346.413 182.776C346.314 183.85 345.411 184.659 344.354 184.659Z" fill="#EE9B68"/>
<path d="M224.043 276.78C224.043 276.78 270.928 332.832 307.086 317.834C343.239 302.835 377.112 262.178 358.937 256.782C340.761 251.392 195.621 254.227 224.043 276.78Z" fill="#FFCEB0"/>
<path d="M347.872 350.85C347.872 350.85 320.551 326.315 291.986 340.185C263.42 354.049 272.114 382.852 246.032 377.516C219.95 372.181 172.691 380.242 183.935 408.449C195.178 436.657 123.258 458.725 150.579 494.994C177.9 531.257 251.643 503.38 274.3 510.851C296.952 518.318 350.356 521.517 356.566 500.181C362.777 478.85 402.52 475.651 396.309 447.917C390.098 420.183 383.888 381.783 347.872 350.85Z" fill="white"/>
<path d="M257.622 415.381C257.622 415.381 285.515 448.874 285.444 481.112C285.4 501.639 270.291 467.044 265.104 460.041C259.923 453.043 276.276 483.194 270.858 492.846C268.21 497.57 251.323 462.695 251.323 462.695C251.323 462.695 258.492 495.461 253.922 498.644C249.357 501.832 237.574 470.321 237.574 470.321C237.574 470.321 238.125 495.918 232.696 496.238C227.272 496.557 229.221 470.249 207.445 458.857C185.663 447.465 86.449 526.312 84.0924 461.693C81.7358 397.073 110.846 374.686 178.279 386.419C231.495 395.68 239.892 401.55 257.622 415.381Z" fill="#FFC6A6"/>
<path d="M319.658 415.381C319.658 415.381 291.764 448.874 291.836 481.112C291.88 501.639 306.988 467.044 312.175 460.041C317.356 453.043 301.003 483.194 306.421 492.846C309.07 497.57 325.957 462.695 325.957 462.695C325.957 462.695 318.788 495.461 323.358 498.644C327.923 501.832 339.705 470.321 339.705 470.321C339.705 470.321 339.155 495.918 344.584 496.238C350.007 496.557 348.058 470.249 369.835 458.857C391.617 447.465 503.418 534.059 505.774 469.44C508.125 404.82 466.433 374.686 399 386.419C345.784 395.68 337.387 401.55 319.658 415.381Z" fill="#FFC6A6"/>
<path d="M350.707 471.703C350.707 471.703 351.301 415.012 382.284 415.381C413.267 415.756 427.995 443.446 398.835 459.777C369.675 476.113 349.886 482.77 350.707 471.703Z" fill="white"/>
<path d="M374.084 436.401C374.084 436.401 379.034 447.925 390.724 449.081C402.408 450.238 428.974 449.081 431.287 465.831C433.594 482.58 419.708 505.678 402.683 503.371C385.664 501.059 368.187 497.584 353.833 507.204C339.479 516.823 353.844 429.496 374.084 436.401Z" fill="white"/>
<path d="M403.564 346.58C403.564 354.234 397.359 360.439 389.705 360.439C382.046 360.439 375.841 354.234 375.841 346.58C375.841 338.927 382.046 332.721 389.705 332.721C397.359 332.721 403.564 338.927 403.564 346.58Z" fill="white"/>
<path d="M242.859 346.58C242.859 354.234 236.654 360.439 229.001 360.439C221.342 360.439 215.136 354.234 215.136 346.58C215.136 338.927 221.342 332.721 229.001 332.721C236.654 332.721 242.859 338.927 242.859 346.58Z" fill="white"/>
<path d="M286.96 202.745C276.377 202.745 267.066 195.428 266.637 195.075C265.739 194.37 265.596 193.071 266.306 192.179C267.011 191.292 268.311 191.138 269.202 191.849C269.313 191.931 279.78 200.119 289.966 198.362C294.877 197.498 299.012 194.387 302.261 189.112C302.861 188.138 304.144 187.829 305.102 188.435C306.077 189.035 306.374 190.307 305.779 191.276C301.881 197.608 296.793 201.363 290.66 202.431C289.415 202.646 288.182 202.745 286.96 202.745Z" fill="#EE9B68"/>
<path d="M203.278 261.038C203.278 261.038 164.125 316.192 162.983 348.606C161.841 381.019 126.798 394.689 136.73 441.389C140.646 459.778 151.647 485.839 141.098 496.121C113.616 522.908 87.0864 503.496 82.5076 496.121C49.4035 442.766 89.4833 316.611 124.359 288.54C150.665 261.038 203.278 261.038 203.278 261.038Z" fill="#D9423D"/>
<path d="M385.032 258.648C385.032 258.648 428.567 314.556 429.767 346.006C430.967 377.456 467.792 390.72 457.355 436.033C453.24 453.876 434.093 480.011 454.042 489.14C477.655 499.943 515.34 492.996 520.152 485.84C567.982 430.836 504.187 319.366 467.538 292.129C435.253 265.822 385.032 258.648 385.032 258.648Z" fill="#D9423D"/>
<path d="M288.116 8.71681C287.473 8.71681 286.774 8.79157 286.016 8.9411C284.17 9.31166 282.974 10.2088 282.256 11.7658C279.054 18.696 285.805 35.2023 290.629 44.9539C293.61 34.1361 297.182 16.0533 292.134 10.3551C291.162 9.25965 289.839 8.71681 288.116 8.71681ZM291.191 53.0933C290.388 53.0933 289.638 52.6609 289.241 51.9458C287.534 48.8871 272.738 21.7222 278.199 9.8935C279.512 7.04928 281.914 5.20297 285.142 4.55936C290.642 3.46392 293.802 5.49552 295.479 7.39058C304.249 17.2917 294.461 48.0809 293.317 51.559C293.038 52.4009 292.29 52.999 291.406 53.0835C291.334 53.09 291.263 53.0933 291.191 53.0933Z" fill="#FFD310"/>
<path d="M318.241 19.708C318.029 19.708 317.815 19.721 317.6 19.7535C310.049 20.7579 300.925 36.7734 296.101 46.9053C306.129 42.6829 322.034 34.6183 324.147 27.285C324.621 25.6337 324.303 24.1743 323.149 22.6855C321.595 20.6864 319.986 19.708 318.241 19.708ZM291.814 53.2341C291.212 53.2341 290.624 52.9936 290.198 52.545C289.584 51.9014 289.408 50.9587 289.749 50.1396C291.16 46.7623 303.896 17.0718 317.009 15.323C319.521 14.9882 323.237 15.5148 326.676 19.942C328.698 22.5425 329.309 25.5102 328.441 28.5202C324.833 41.0381 295.867 51.9014 292.577 53.1009C292.327 53.1919 292.07 53.2341 291.814 53.2341Z" fill="#FFD310"/>
<path d="M249.861 45.3416C260.716 52.3194 285.526 57.7466 304.909 45.3416" stroke="#FFD310" stroke-width="3.87"/>
<defs>
<linearGradient id="paint0_linear_42_181" x1="22.3492" y1="465.289" x2="53.6072" y2="573.824" gradientUnits="userSpaceOnUse">
<stop stop-color="#FFCECE"/>
<stop offset="1" stop-color="#FFF2F2"/>
</linearGradient>
<linearGradient id="paint1_linear_42_181" x1="84.4998" y1="97.5" x2="494.885" y2="408.938" gradientUnits="userSpaceOnUse">
<stop stop-color="#FFDADA"/>
<stop offset="1" stop-color="white"/>
</linearGradient>
<linearGradient id="paint2_linear_42_181" x1="531.982" y1="178.886" x2="411.953" y2="127.619" gradientUnits="userSpaceOnUse">
<stop stop-color="#FFDFDF"/>
<stop offset="1" stop-color="#FFF5F5"/>
</linearGradient>
<linearGradient id="paint3_linear_42_181" x1="504.889" y1="516.965" x2="22.362" y2="237.536" gradientUnits="userSpaceOnUse">
<stop stop-color="#FFE0E0"/>
<stop offset="1" stop-color="#FFF4F4"/>
</linearGradient>
</defs>
</svg>
