<svg width="574" height="567" viewBox="0 0 574 567" fill="none" xmlns="http://www.w3.org/2000/svg">
<path d="M217.581 539.51C187.01 550.342 156.141 555.346 123.216 549.091C86.5171 542.115 54.6857 510.709 36.6999 479.389C30.0172 467.756 24.697 454.757 25.3923 441.362C27.0098 410.417 56.2442 406.959 81.0596 411.964C95.048 414.779 107.892 421.186 120.591 427.532C141.674 438.074 166.404 443.259 185.305 457.872C191.648 462.789 196.411 468.698 203.781 472.275C215.245 477.845 228.331 480.475 240.106 485.544C250.159 489.893 261.397 497.048 261.412 507.997C261.413 519.226 249.698 526.382 239.404 530.853C232.118 534.038 224.864 536.942 217.581 539.51Z" fill="url(#paint0_linear_43_368)"/>
<path d="M105.053 140.358C155.134 66.5536 258.693 36.9195 342.634 64.6686C383.111 78.0563 417.034 105.933 448.322 134.872C475.901 160.378 502.657 187.888 521.491 220.677C534.351 243.058 543.556 269.887 550.056 294.933C559.773 332.436 550.948 380.757 502.469 377.217C491.095 376.387 481.255 372.297 470.617 368.719C462.013 365.818 453.58 367.558 444.646 366.141C422.159 362.58 400.496 354.301 380.011 344.604C338.265 324.823 300.119 297.95 257.186 280.616C222.001 266.429 184.428 259.105 146.491 259.037C130.486 259.011 113.658 260.131 99.3413 252.975C64.0548 235.32 79.9228 187.715 93.1012 160.935C96.5926 153.802 100.587 146.925 105.053 140.358V140.358Z" fill="url(#paint1_linear_43_368)"/>
<path d="M497.717 151.498C505.962 158.965 538.356 179.352 538.98 155.428C539.127 149.469 536.424 143.682 532.745 139.317C528.536 134.307 523.764 131.68 520.477 125.843C516.456 118.796 511.878 112.173 506.803 106.059C496.429 93.3339 484.316 81.5766 469.62 76.3381C459.311 72.6682 441.859 73.5911 436.963 86.8021C429.829 106.034 460.331 109.557 469.633 116.566C478.461 123.2 483.461 134.599 490.454 143.658C492.664 146.514 495.095 149.139 497.717 151.498V151.498Z" fill="url(#paint2_linear_43_368)"/>
<path d="M345.252 128.107C362.716 138.389 375.817 153.779 391.739 166.175C418.249 186.808 454.584 191.029 484.984 205.378C515.982 220.018 539.388 242.771 549.971 275.563C563.643 317.891 564.942 368.228 553.327 411.744C540.535 459.643 510.494 491.461 466.572 512.68C422.675 533.887 374.047 543.783 325.547 545.825C320.867 546.026 316.194 546.134 311.503 546.164C206.14 546.776 65.8957 509.689 30.0241 396.503C29.6952 395.469 29.3801 394.435 29.0641 393.386C25.3678 380.776 23.1945 367.768 22.5906 354.641C20.3343 308.105 28.479 256.74 44.7944 213.115C55.7679 183.744 79.3976 158.91 104.297 141.215C139.28 116.357 181.965 110.012 224.449 107.03C255.908 104.822 291.29 104.016 321.04 116.049C329.4 119.458 337.494 123.488 345.252 128.107Z" fill="url(#paint3_linear_43_368)"/>
<path d="M418.633 536.123C283.582 575.391 171.04 537.525 131.65 513.684L95.0739 485.635L107.735 464.598L186.515 457.586L317.345 450.574L422.854 471.61L532.583 435.147H543.837C526.956 492.367 453.334 526.306 418.633 536.123Z" fill="#FB4C47"/>
<path d="M125.133 504.644H458.49C458.49 504.644 470.161 312.974 427.692 284.927C385.228 256.886 195.811 266.496 154.448 294.78C49.5596 366.495 125.133 504.644 125.133 504.644Z" fill="#FB4C47"/>
<path d="M180.629 244.542C180.148 244.542 179.662 244.386 179.262 244.05C178.341 243.303 156.967 225.312 168.662 189.051C172.745 176.372 176.748 167.399 180.281 159.47C186.647 145.203 191.246 134.887 192.115 112.841C192.162 111.642 193.181 110.744 194.374 110.75C195.573 110.802 196.506 111.81 196.459 113.009C195.556 135.889 190.569 147.08 184.249 161.242C180.762 169.068 176.812 177.936 172.786 190.384C162.047 223.713 181.197 240.013 182.013 240.69C182.934 241.455 183.073 242.822 182.309 243.743C181.88 244.27 181.254 244.542 180.629 244.542Z" fill="#000C3E"/>
<path d="M298.963 28.2861C298.401 43.3347 285.745 55.0701 270.696 54.5082C255.654 53.9464 243.912 41.29 244.474 26.2472C245.042 11.1986 257.693 -0.542505 272.741 0.0193553C287.784 0.587008 299.525 13.2376 298.963 28.2861Z" fill="#000C3E"/>
<path d="M178.19 233.954C178.19 233.954 186.19 250.451 218.847 256.249C251.51 262.053 277.142 250.236 302.356 259.382C327.57 268.523 363.998 256.608 371.221 246.014C378.439 235.419 376.927 118.095 357.047 98.4181C337.162 78.7472 232.992 62.3258 210.419 85.3447C187.846 108.369 163.872 220.741 178.19 233.954Z" fill="#000C3E"/>
<path d="M366.765 141.39C364.905 190.973 323.206 229.666 273.623 227.807C224.04 225.947 185.347 184.248 187.207 134.66C189.066 85.0769 230.765 46.3896 280.348 48.249C329.931 50.1025 368.624 91.8076 366.765 141.39Z" fill="#000C3E"/>
<path d="M313.838 216.508C313.838 216.508 319.671 286.474 313.838 294.247C308.005 302.02 271.079 296.193 261.365 294.247C251.645 292.307 247.759 216.508 253.586 216.508C259.419 216.508 312.72 200.909 313.838 216.508Z" fill="#FFCEB0"/>
<path d="M203.632 134.656C203.632 134.656 207.328 243.709 281.053 248.418C354.784 253.122 354.709 99.4733 328.029 84.8591C301.344 70.245 190.003 72.9847 203.632 134.656Z" fill="#FFCEB0"/>
<path d="M279.335 157.999C279.335 157.999 293.416 191.566 289.79 193.79C286.17 196.014 275.564 195.615 272.708 193.147C269.852 190.68 273.577 154.246 279.335 157.999Z" fill="#EE9B68"/>
<path d="M261.684 76.4997C261.684 76.4997 235.248 89.2835 230.22 113.281C225.186 137.285 227.793 198.736 199.781 195.915C199.781 195.915 145.547 74.2986 261.684 76.4997" fill="#000C3E"/>
<path d="M275.619 77.0207C273.221 78.741 302.878 78.6657 319.832 99.2228C336.793 119.774 340.818 171.147 343.436 172.097C346.06 173.052 356.533 108.444 337.939 89.034C319.352 69.6238 289.266 67.2489 275.619 77.0207Z" fill="#000C3E"/>
<path d="M254.612 238.472C254.612 238.472 283.302 254.784 313.08 239.538C313.08 239.538 315.397 257.848 313.08 262.071C310.763 266.293 263.59 269.311 254.305 248.499C254.305 248.499 251.93 237.569 254.612 238.472" fill="#EE9B68"/>
<path d="M337.076 176.478C337.076 176.478 344.137 149.179 356.446 158.893C368.761 168.612 357.622 197.14 345.452 199.729C333.282 202.318 330.352 190.554 337.076 176.478Z" fill="#FFCEB0"/>
<path d="M220.795 172.121C220.795 172.121 215.796 144.37 202.793 153.14C189.789 161.904 198.761 191.19 210.705 194.683C222.649 198.17 226.443 186.66 220.795 172.121Z" fill="#FFCEB0"/>
<path d="M306.679 142.656C306.679 142.656 318.918 134.443 327.949 143.421C335.89 151.316 319.11 146.016 313.329 147.759C307.542 149.503 299.694 149.844 306.679 142.656Z" fill="#41294A"/>
<path d="M255.662 144.597C255.662 144.597 243.932 135.671 234.386 144.105C225.993 151.513 243.052 147.215 248.722 149.301C254.393 151.386 262.213 152.185 255.662 144.597Z" fill="#41294A"/>
<path d="M249.754 153.703C238.366 153.703 229.11 162.629 228.675 174.028C228.241 185.659 237.352 195.477 248.983 195.906L249.794 195.923C261.182 195.923 270.438 186.997 270.873 175.604C271.307 163.967 262.19 154.149 250.565 153.72L249.754 153.703ZM249.794 198.82L248.873 198.802C235.643 198.31 225.287 187.142 225.779 173.912C226.271 160.961 236.802 150.807 249.754 150.807L250.675 150.824C263.899 151.316 274.255 162.484 273.769 175.72C273.276 188.671 262.746 198.82 249.794 198.82Z" fill="#FFFCF6"/>
<path d="M309.655 150.338C298.262 150.338 289.006 159.264 288.577 170.663C288.363 176.293 290.361 181.674 294.196 185.804C298.03 189.94 303.249 192.332 308.885 192.541L309.696 192.558C321.084 192.558 330.34 183.632 330.774 172.233C330.983 166.603 328.985 161.221 325.15 157.086C321.315 152.956 316.102 150.563 310.466 150.355L309.655 150.338ZM309.696 195.454L308.775 195.437C302.369 195.199 296.437 192.477 292.076 187.779C287.714 183.076 285.437 176.959 285.681 170.547C286.167 157.595 296.698 147.441 309.655 147.441L310.576 147.459C316.983 147.696 322.914 150.419 327.276 155.116C331.637 159.82 333.908 165.936 333.671 172.349C333.178 185.3 322.648 195.454 309.696 195.454Z" fill="#FFFCF6"/>
<path d="M227.937 170.605C227.763 170.605 227.578 170.57 227.404 170.501L218.628 167.037C217.881 166.742 217.516 165.902 217.812 165.16C218.107 164.413 218.935 164.054 219.688 164.344L228.47 167.813C229.217 168.103 229.576 168.949 229.281 169.69C229.055 170.258 228.516 170.605 227.937 170.605Z" fill="#FFFCF6"/>
<path d="M331.387 166.774C330.762 166.774 330.177 166.363 329.997 165.72C329.777 164.956 330.223 164.156 330.994 163.936L343.192 160.443C343.974 160.229 344.768 160.669 344.982 161.44C345.202 162.21 344.756 163.009 343.986 163.229L331.781 166.716C331.654 166.757 331.515 166.774 331.387 166.774Z" fill="#FFFCF6"/>
<path d="M270.626 70.773C270.626 70.773 273.95 129.884 290.244 135.248C306.538 140.617 346.598 139.146 348.533 132.682C350.468 126.212 317.469 74.1847 293.789 65.8437C252.264 51.2122 216.421 118.728 221.159 134.993C225.897 151.264 261.578 137.026 269.189 134.935C276.806 132.844 269.102 82.4562 270.626 70.773Z" fill="#000C3E"/>
<path d="M272.328 175.837C271.575 175.837 270.944 175.257 270.886 174.504C270.822 173.705 271.419 173.01 272.212 172.946L287.075 171.788C287.967 171.649 288.57 172.326 288.628 173.114C288.692 173.914 288.101 174.609 287.301 174.672L272.444 175.831C272.403 175.837 272.363 175.837 272.328 175.837Z" fill="#FFFCF6"/>
<path d="M254.693 54.5476C254.351 54.5476 254.015 54.4665 253.697 54.3043C245.726 50.1917 240.971 44.4573 239.569 37.2632C236.493 21.4732 250.835 4.54783 251.449 3.83537C252.231 2.91439 253.598 2.81012 254.513 3.60368C255.423 4.38565 255.527 5.75265 254.745 6.66205C254.606 6.82424 241.156 22.7243 243.838 36.4406C244.973 42.262 248.964 46.9712 255.689 50.4466C256.755 50.9969 257.172 52.306 256.622 53.3718C256.24 54.119 255.481 54.5476 254.693 54.5476Z" fill="#000C3E"/>
<path d="M286.133 59.4011C285.519 59.4011 284.899 59.1347 284.47 58.6192C283.7 57.704 283.821 56.337 284.742 55.5666C284.899 55.4276 300.787 41.9487 300.393 27.9775C300.231 22.0519 297.069 16.7519 291.004 12.2222C290.042 11.504 289.845 10.1428 290.564 9.18124C291.288 8.21391 292.637 8.02856 293.605 8.74102C300.787 14.1105 304.541 20.5459 304.738 27.8732C305.178 43.9529 288.247 58.2948 287.523 58.8972C287.117 59.2389 286.625 59.4011 286.133 59.4011Z" fill="#000C3E"/>
<path d="M363.99 242.71C363.341 242.71 362.698 242.42 362.27 241.87C361.534 240.92 361.702 239.559 362.652 238.823C363.399 238.238 380.985 224.209 376.386 200.576C374.584 191.32 371.282 181.073 367.778 170.224C361.679 151.323 355.371 131.774 355.261 112.903C355.255 111.704 356.222 110.725 357.421 110.719H357.433C358.626 110.719 359.599 111.686 359.605 112.879C359.709 131.079 365.913 150.304 371.908 168.892C375.453 179.868 378.801 190.231 380.649 199.748C385.769 226.057 366.15 241.609 365.316 242.258C364.917 242.565 364.453 242.71 363.99 242.71Z" fill="#000C3E"/>
<path d="M371.232 143.634C371.145 143.634 371.058 143.628 370.965 143.616C369.778 143.472 368.932 142.388 369.077 141.195C372.008 117.331 367.461 97.8045 355.552 83.1614C336.367 59.5691 304.22 56.6323 303.895 56.6149C302.702 56.5107 301.816 55.4623 301.908 54.2632C302.013 53.0758 303.061 52.178 304.254 52.2823C305.644 52.3923 338.522 55.3638 358.894 80.3869C371.591 95.9799 376.468 116.624 373.386 141.728C373.253 142.823 372.315 143.634 371.232 143.634Z" fill="#000C3E"/>
<path d="M282.744 228.392C278.672 228.392 275.527 227.1 275.324 227.019C274.218 226.556 273.702 225.287 274.166 224.181C274.623 223.075 275.915 222.577 276.998 223.005C277.056 223.028 282.982 225.432 288.148 222.855C289.208 222.327 290.529 222.75 291.062 223.833C291.589 224.905 291.155 226.208 290.083 226.747C287.587 227.992 285.021 228.392 282.744 228.392Z" fill="#EE9B68"/>
<path d="M213.289 187.897C213.081 187.897 212.866 187.868 212.658 187.799C211.505 187.451 210.862 186.241 211.216 185.094C215.166 172.113 205.707 163.494 205.614 163.407C204.722 162.614 204.641 161.235 205.441 160.337C206.234 159.439 207.601 159.358 208.511 160.163C208.986 160.586 220.124 170.752 215.363 186.356C215.085 187.295 214.222 187.897 213.289 187.897Z" fill="#EE9B68"/>
<path d="M342.091 194.261C342.028 194.261 341.97 194.261 341.9 194.255C340.707 194.145 339.821 193.097 339.925 191.898C341.356 175.615 349.436 167.031 349.778 166.672C350.612 165.815 351.973 165.791 352.842 166.614C353.711 167.437 353.74 168.809 352.917 169.678C352.842 169.759 345.544 177.608 344.258 192.28C344.153 193.41 343.203 194.261 342.091 194.261Z" fill="#EE9B68"/>
<path d="M215.527 291.175C215.527 291.175 264.849 350.142 302.888 334.363C340.92 318.585 376.555 275.814 357.434 270.137C338.314 264.467 185.627 267.45 215.527 291.175Z" fill="#FFCEB0"/>
<path d="M347.883 211.727C347.883 211.727 362.764 319.57 348.85 331.757C334.943 343.944 317.351 333.274 293.742 341.355C270.132 349.429 269.321 316.644 270.943 299.823C272.565 283.002 280.263 176.162 347.883 211.727Z" fill="white"/>
<path d="M84.0364 378.639L54.8486 464.817L267.556 536.863C267.556 536.863 300.092 454.275 295.997 452.891C291.907 451.501 84.0364 378.639 84.0364 378.639Z" fill="#128E5A"/>
<path d="M126.074 482.883C126.074 482.883 162.445 457.756 161.17 464.145C159.902 470.539 145.832 482.883 145.832 482.883C145.832 482.883 171.382 463.108 173.051 472.995C174.719 482.883 165.752 492.267 165.752 492.267C165.752 492.267 183.726 477.942 186.628 485.35C189.53 492.759 166.337 525.526 145.832 524.576C125.333 523.626 116.048 489.579 126.074 482.883Z" fill="#FFC6A6"/>
<path d="M139.529 434.436L219.163 466.874C219.163 466.874 233.024 424.728 230.417 419.857C227.805 414.98 199.098 413.167 191.226 405.428C183.36 397.695 186.198 388.242 173.05 389.882C159.901 391.521 139.529 434.436 139.529 434.436Z" fill="white"/>
<path d="M284.677 221.294C284.433 221.294 284.178 221.254 283.935 221.167C277.65 218.89 274.534 216.087 274.418 212.6C274.233 207.033 282.203 203.245 283.802 202.538C284.908 202.064 286.183 202.55 286.663 203.651C287.15 204.751 286.652 206.031 285.551 206.512C282.661 207.792 278.699 210.567 278.763 212.455C278.78 212.976 279.313 214.87 285.418 217.077C286.542 217.489 287.127 218.734 286.721 219.863C286.397 220.744 285.563 221.294 284.677 221.294Z" fill="#EE9B68"/>
<path d="M258.509 179.819C257.994 179.819 257.484 179.64 257.073 179.275C247.979 171.247 241.601 173.396 241.341 173.482C240.246 173.876 238.971 173.32 238.56 172.208C238.137 171.09 238.682 169.856 239.794 169.422C240.147 169.283 248.714 166.097 259.946 176.02C260.843 176.813 260.93 178.186 260.137 179.084C259.708 179.57 259.112 179.819 258.509 179.819Z" fill="#41294A"/>
<path d="M303.151 180.312C302.549 180.312 301.952 180.063 301.523 179.576C300.73 178.678 300.817 177.306 301.715 176.512C312.923 166.607 321.507 169.77 321.86 169.914C322.984 170.349 323.54 171.612 323.1 172.724C322.671 173.842 321.414 174.404 320.314 173.969C319.995 173.859 313.63 171.78 304.588 179.767C304.176 180.132 303.667 180.312 303.151 180.312Z" fill="#41294A"/>
<path d="M444.095 472.554C444.095 472.554 470.792 506.529 512.046 482.261C555.659 445.438 565.433 397.325 547.571 360.886C524.581 322.235 467.784 279.556 453.249 279.628C438.707 279.706 388.022 417.674 444.095 472.554Z" fill="#D9423D"/>
<path d="M391.322 223.92C391.322 223.92 334.904 199.772 314.052 205.367C293.199 210.963 333.676 216.274 341.925 220.271C350.173 224.262 311.7 217.659 306.887 220.711C302.079 223.758 341.867 235.036 341.867 235.036C341.867 235.036 306.597 234.005 304.193 239.345C301.789 244.686 336.659 250.733 336.659 250.733C336.659 250.733 310.09 255.147 310.82 260.823C311.544 266.494 360.57 264.727 376.592 285.024C392.608 305.326 415.326 416.007 482.592 405.859C549.854 395.71 549.216 354.249 500.705 301.028C452.194 247.814 410.889 233.263 391.322 223.92Z" fill="#FFC6A6"/>
<path d="M281.863 8.62869C281.21 8.62869 280.501 8.70456 279.732 8.85629C277.859 9.23231 276.645 10.1427 275.916 11.7226C272.667 18.7549 279.518 35.5045 284.413 45.3999C287.437 34.4226 291.062 16.0733 285.94 10.2911C284.954 9.17953 283.611 8.62869 281.863 8.62869ZM284.983 53.6592C284.169 53.6592 283.407 53.2205 283.004 52.4948C281.272 49.391 266.258 21.8258 271.799 9.82273C273.132 6.93658 275.569 5.06306 278.845 4.40997C284.426 3.29839 287.632 5.35992 289.334 7.28292C298.233 17.33 288.301 48.573 287.14 52.1023C286.857 52.9566 286.098 53.5635 285.201 53.6493C285.128 53.6559 285.056 53.6592 284.983 53.6592Z" fill="#FFD310"/>
<path d="M312.428 19.7825C312.214 19.7825 311.996 19.7957 311.779 19.8287C304.116 20.8479 294.857 37.0994 289.963 47.3806C300.138 43.096 316.278 34.9125 318.422 27.4712C318.903 25.7956 318.58 24.3146 317.409 22.8039C315.832 20.7753 314.2 19.7825 312.428 19.7825ZM285.612 53.8027C285.002 53.8027 284.405 53.5586 283.973 53.1035C283.349 52.4504 283.171 51.4938 283.517 50.6626C284.949 47.2355 297.872 17.1074 311.178 15.3329C313.728 14.9931 317.498 15.5275 320.988 20.02C323.039 22.6587 323.66 25.6702 322.779 28.7246C319.118 41.4269 289.725 52.4504 286.387 53.6675C286.133 53.7599 285.872 53.8027 285.612 53.8027Z" fill="#FFD310"/>
<path d="M243.043 45.7942C254.057 52.8749 279.233 58.3821 298.901 45.7942" stroke="#FFD310" stroke-width="4.87"/>
<defs>
<linearGradient id="paint0_linear_43_368" x1="22.6785" y1="445.633" x2="54.3972" y2="555.768" gradientUnits="userSpaceOnUse">
<stop stop-color="#FFCBCB"/>
<stop offset="1" stop-color="#FFF1F1"/>
</linearGradient>
<linearGradient id="paint1_linear_43_368" x1="494.031" y1="186" x2="165.836" y2="33.7737" gradientUnits="userSpaceOnUse">
<stop stop-color="white"/>
<stop offset="1" stop-color="#FFDDDD"/>
</linearGradient>
<linearGradient id="paint2_linear_43_368" x1="539.821" y1="155.009" x2="446.671" y2="85.1442" gradientUnits="userSpaceOnUse">
<stop stop-color="#FFDDDD"/>
<stop offset="1" stop-color="#FFFBFC"/>
</linearGradient>
<linearGradient id="paint3_linear_43_368" x1="512.329" y1="498.071" x2="22.6905" y2="214.523" gradientUnits="userSpaceOnUse">
<stop stop-color="#FFE6E6"/>
<stop offset="1" stop-color="#FFF5F5"/>
</linearGradient>
</defs>
</svg>
