<svg width="49" height="35" viewBox="0 0 49 35" fill="none" xmlns="http://www.w3.org/2000/svg">
<rect width="49" height="35" rx="2.64865" fill="white"/>
<mask id="mask0_46_421" style="mask-type:luminance" maskUnits="userSpaceOnUse" x="0" y="0" width="49" height="35">
<rect width="49" height="35" rx="2.64865" fill="white"/>
</mask>
<g mask="url(#mask0_46_421)">
<path fill-rule="evenodd" clip-rule="evenodd" d="M0 9.33333H49V0H0V9.33333Z" fill="#DD172C"/>
<path fill-rule="evenodd" clip-rule="evenodd" d="M0 34.9998H49V25.6665H0V34.9998Z" fill="#DD172C"/>
<path fill-rule="evenodd" clip-rule="evenodd" d="M0 25.6663H49V9.33301H0V25.6663Z" fill="#FFD133"/>
<path fill-rule="evenodd" clip-rule="evenodd" d="M12.8345 16.3331H15.1678V17.4998H12.8345V16.3331Z" fill="#FFEDB1"/>
<path d="M10.8765 15.6084H14.7908C15.0491 15.6084 15.2522 15.8292 15.2307 16.0865L14.862 20.5112C14.8048 21.1976 14.231 21.7256 13.5423 21.7256H12.1251C11.4363 21.7256 10.8625 21.1976 10.8053 20.5112L10.4366 16.0865C10.4151 15.8292 10.6182 15.6084 10.8765 15.6084Z" stroke="#A41517" stroke-width="0.882883"/>
<path fill-rule="evenodd" clip-rule="evenodd" d="M10.4988 17.5H15.1654V18.6667H13.9988L12.8321 21L11.6654 18.6667H10.4988V17.5Z" fill="#A41517"/>
<rect x="6.99927" y="13.9998" width="2.33333" height="8.16667" rx="0.882883" fill="#A41517"/>
<rect x="16.3342" y="13.9998" width="2.33333" height="8.16667" rx="0.882883" fill="#A41517"/>
<path d="M10.4988 13.4325C10.4988 12.4573 11.2893 11.6667 12.2645 11.6667H13.3997C14.3749 11.6667 15.1654 12.4573 15.1654 13.4325V13.5586C15.1654 13.8024 14.9678 14.0001 14.724 14.0001H10.9402C10.6964 14.0001 10.4988 13.8024 10.4988 13.5586V13.4325Z" fill="#A41517"/>
</g>
</svg>
