<svg width="774" height="769" viewBox="0 0 774 769" fill="none" xmlns="http://www.w3.org/2000/svg">
<path d="M273.897 618.773C233.001 629.519 192.276 633.115 149.943 622.774C102.759 611.244 64.2556 570.238 43.7963 530.469C36.1942 515.697 30.499 499.367 32.6849 483.044C37.7497 445.336 76.1974 443.498 108.075 451.647C126.045 456.232 142.18 465.117 158.131 473.915C184.613 488.53 216.363 496.892 239.612 516.306C247.411 522.838 253.057 530.452 262.325 535.43C276.741 543.177 293.552 547.463 308.421 554.624C321.114 560.765 335.082 570.433 334.056 583.823C332.985 597.554 317.027 605.347 303.178 609.971C293.374 613.27 283.638 616.228 273.897 618.773Z" fill="url(#paint0_linear_33_791)"/>
<path d="M143.866 127.123C214.479 32.5494 357.687 -4.3243 472.587 32.5869C527.992 50.3947 574.045 86.8122 616.448 124.565C653.825 157.839 690.023 193.689 715.197 236.246C732.387 265.294 744.443 300.033 752.818 332.437C765.337 380.956 752.088 443.19 685.446 437.983C669.809 436.763 656.359 431.356 641.8 426.599C630.023 422.742 618.378 424.877 606.113 422.931C575.245 418.04 545.618 407.072 517.645 394.29C460.638 368.216 408.75 333.037 350.054 310.105C301.951 291.336 250.404 281.39 198.191 280.804C176.164 280.559 152.977 281.783 133.436 272.36C85.272 249.115 108.198 187.897 126.947 153.516C131.915 144.357 137.569 135.537 143.866 127.123V127.123Z" fill="url(#paint1_linear_33_791)"/>
<path d="M676.444 147.789C686.891 156.896 728.127 181.88 729.44 153.037C729.756 145.851 726.402 138.839 721.763 133.53C716.455 127.437 710.373 124.209 706.27 117.13C701.246 108.581 695.499 100.537 689.101 93.102C676.027 77.6282 660.697 63.3 641.903 56.8015C628.721 52.2488 606.252 53.147 599.672 69.0189C590.085 92.1239 629.247 96.7491 641.063 105.316C652.278 113.425 658.466 127.233 667.269 138.244C670.051 141.717 673.122 144.912 676.444 147.789V147.789Z" fill="url(#paint2_linear_33_791)"/>
<path d="M467.197 110.838C490.999 124.335 508.679 144.367 530.311 160.57C566.327 187.543 616.24 193.469 657.754 212.384C700.084 231.683 731.78 261.35 745.598 303.803C763.449 358.599 764.089 423.568 747.109 479.565C728.41 541.203 686.339 581.863 625.402 608.664C564.501 635.449 497.346 647.578 430.547 649.573C424.1 649.771 417.667 649.849 411.21 649.826C266.18 649.228 74.0005 599.527 27.2109 453.006C26.7819 451.667 26.3718 450.329 25.9607 448.971C21.161 432.651 18.4665 415.839 17.9348 398.893C15.891 338.816 28.2729 272.645 51.7237 216.569C67.4971 178.815 101.213 154.523 135.887 132.019C184.603 100.403 242.871 85.3391 301.412 82.0502C344.761 79.6164 393.477 79.0418 434.148 94.9606C445.577 99.469 456.625 104.776 467.197 110.838Z" fill="url(#paint3_linear_33_791)"/>
<path d="M673.218 582.174C640.581 607.744 604.954 626.753 561.727 633.723C513.546 641.488 460.329 619.123 424.143 590.905C410.699 580.425 398.312 567.792 393.129 552.12C381.169 515.908 415.488 499.376 448.198 494.456C466.634 491.675 485.284 493.509 503.728 495.335C534.352 498.375 567.038 493.697 596.819 502.346C606.819 505.265 615.327 509.999 625.983 510.938C642.563 512.403 659.807 509.798 676.542 510.555C690.84 511.227 707.855 514.609 712.807 527.17C717.87 540.057 706.717 553.305 696.099 562.859C688.592 569.646 680.998 576.097 673.218 582.174Z" fill="url(#paint4_linear_33_791)"/>
<path d="M298.519 329.543C298.178 329.543 297.834 329.435 297.542 329.209C297.274 328.999 290.946 324 286.113 313.803C281.681 304.452 277.745 288.775 284.153 267.162C288.499 252.5 292.855 242.077 296.695 232.875C303.67 216.181 308.71 204.119 309.117 178.547C309.13 177.672 309.775 176.921 310.73 176.982C311.611 176.998 312.311 177.717 312.299 178.598C311.882 204.781 306.476 217.721 299.632 234.103C295.82 243.229 291.503 253.569 287.204 268.068C275.518 307.471 299.257 326.511 299.498 326.695C300.189 327.236 300.313 328.235 299.775 328.929C299.46 329.333 298.993 329.543 298.519 329.543Z" fill="#000C3E"/>
<path d="M428.886 78.2762C428.648 95.6103 414.403 109.473 397.066 109.235C379.732 108.996 365.872 94.7513 366.107 77.414C366.346 60.0799 380.594 46.2203 397.928 46.4557C415.262 46.6944 429.125 60.9422 428.886 78.2762Z" fill="#000C3E"/>
<path d="M295.481 318.33C295.481 318.33 305.137 337.099 342.895 342.886C380.649 348.671 409.835 334.366 439.111 344.204C468.386 354.045 509.993 339.332 518.014 326.939C526.039 314.547 521.088 179.523 497.664 157.42C474.24 135.316 353.878 119.261 328.52 146.379C303.162 173.5 278.637 303.509 295.481 318.33Z" fill="#000C3E"/>
<path d="M510.025 206.621C509.242 263.749 462.296 309.426 405.164 308.643C348.036 307.86 302.359 260.911 303.142 203.783C303.928 146.655 350.874 100.978 408.002 101.76C465.13 102.546 510.807 149.493 510.025 206.621Z" fill="#000C3E"/>
<path d="M322.052 203.327C322.052 203.327 329.285 328.761 414.288 332.165C499.288 335.57 495.002 158.7 463.888 142.604C432.774 126.511 304.674 132.712 322.052 203.327Z" fill="#FFCEB0"/>
<path d="M409.831 228.132C409.831 228.132 426.958 266.386 422.847 269.046C418.737 271.703 406.519 271.537 403.162 268.775C399.805 266.014 403.098 223.967 409.831 228.132Z" fill="#F5A473"/>
<path d="M384.72 241.667C384.609 246.07 380.95 249.551 376.546 249.44C372.143 249.332 368.662 245.673 368.773 241.269C368.881 236.866 372.54 233.385 376.947 233.493C381.351 233.604 384.831 237.263 384.72 241.667Z" fill="#41294A"/>
<path d="M453.097 236.286C452.986 240.689 449.327 244.17 444.923 244.059C440.52 243.951 437.039 240.292 437.15 235.888C437.258 231.484 440.917 228.004 445.324 228.112C449.727 228.223 453.208 231.882 453.097 236.286Z" fill="#41294A"/>
<path d="M387.288 134.795C387.288 134.795 357.205 150.235 352.073 177.999C346.938 205.763 351.612 276.433 319.291 273.954C319.291 273.954 253.538 135.437 387.288 134.795" fill="#41294A"/>
<path d="M403.343 135.014C400.629 137.057 434.766 136.163 454.845 159.361C474.929 182.559 480.968 241.583 484.012 242.608C487.057 243.636 497.344 168.976 475.415 147.14C453.487 125.307 418.787 123.392 403.343 135.014Z" fill="#41294A"/>
<path d="M476.811 247.824C476.811 247.824 484.19 216.204 498.629 227.054C513.067 237.904 501.024 271.048 487.085 274.36C473.149 277.672 469.458 264.207 476.811 247.824Z" fill="#FFCEB0"/>
<path d="M342.833 245.987C342.833 245.987 336.323 214.176 321.591 224.625C306.863 235.074 317.993 268.539 331.833 272.233C345.677 275.924 349.734 262.567 342.833 245.987Z" fill="#FFCEB0"/>
<path d="M441.27 208.151C441.27 208.151 456.281 200.232 465.531 211.61C473.666 221.613 455.098 213.506 448.263 214.801C441.426 216.099 432.396 215.533 441.27 208.151Z" fill="#41294A"/>
<path d="M381.613 211.034C381.613 211.034 366.217 203.891 357.56 215.724C349.946 226.131 368.075 217.085 374.97 218.034C381.862 218.979 390.853 217.951 381.613 211.034Z" fill="#41294A"/>
<path d="M435.819 292.421C435.819 292.421 426.026 277.622 415.43 278.555C404.832 279.49 396.709 293.13 395.284 293.703C395.284 293.703 411.822 301.469 435.819 292.421" fill="#41294A"/>
<path d="M376.259 223.908C363.001 223.908 352.065 234.7 351.881 247.962C351.795 254.472 354.245 260.632 358.788 265.302C363.332 269.97 369.418 272.589 375.931 272.678L376.272 272.681C389.53 272.681 400.466 261.892 400.647 248.63C400.832 235.187 390.045 224.099 376.599 223.911L376.259 223.908ZM376.272 275.863L375.887 275.859C368.524 275.761 361.642 272.795 356.507 267.52C351.371 262.242 348.6 255.28 348.699 247.917C348.906 232.925 361.27 220.726 376.259 220.726L376.644 220.729C391.843 220.939 404.036 233.475 403.829 248.671C403.625 263.664 391.261 275.863 376.272 275.863Z" fill="#FFFCF6"/>
<path d="M445.125 218.396C431.863 218.396 420.927 229.189 420.746 242.45C420.562 255.89 431.351 266.981 444.794 267.166L445.134 267.169C458.396 267.169 469.331 256.38 469.513 243.118C469.602 236.605 467.149 230.446 462.608 225.775C458.065 221.11 451.978 218.489 445.465 218.399L445.125 218.396ZM445.134 270.351L444.752 270.348C429.55 270.138 417.358 257.602 417.564 242.406C417.771 227.413 430.132 215.215 445.125 215.215L445.51 215.218C452.872 215.316 459.754 218.282 464.886 223.557C470.025 228.836 472.796 235.797 472.694 243.16C472.487 258.152 460.123 270.351 445.134 270.351Z" fill="#FFFCF6"/>
<path d="M350.973 243.968C350.792 243.968 350.604 243.936 350.426 243.872L340.222 240.124C339.398 239.819 338.975 238.906 339.277 238.078C339.579 237.257 340.499 236.841 341.32 237.137L351.52 240.881C352.348 241.187 352.768 242.1 352.465 242.927C352.23 243.57 351.622 243.968 350.973 243.968Z" fill="#FFFCF6"/>
<path d="M469.96 236.737C469.282 236.737 468.652 236.301 468.442 235.621C468.178 234.784 468.646 233.89 469.486 233.626L483.432 229.273C484.265 229.006 485.162 229.48 485.423 230.317C485.687 231.157 485.22 232.047 484.38 232.312L470.434 236.667C470.278 236.715 470.116 236.737 469.96 236.737Z" fill="#FFFCF6"/>
<path d="M402.845 164.183C402.845 164.183 402.874 195.914 421.777 201.644C440.676 207.378 489.296 204.848 488.803 197.094C484.352 127.087 451.443 130.609 423.959 121.649C375.759 105.941 336.338 184.641 342.24 203.242C348.142 221.839 388.824 204.473 397.532 201.857C406.237 199.239 401.414 177.676 402.845 164.183" fill="#000C3E"/>
<g opacity="0.210007">
<g opacity="0.210007">
<path opacity="0.210007" d="M354.102 271.353C354.102 271.353 396.982 246.611 415.802 250.07C434.622 253.532 467.651 254.073 469.147 260.824C470.645 267.573 427.272 264.531 413.931 265.829C400.59 267.127 349.374 282.485 354.102 271.353Z" fill="#DB5C5D"/>
</g>
</g>
<path d="M378.099 254.796C377.472 254.796 376.877 254.424 376.626 253.804C376.295 252.992 376.687 252.063 377.501 251.732C381.812 249.976 382.611 248.592 382.617 248.579C382.901 247.746 383.772 247.357 384.612 247.653C385.443 247.937 385.86 248.904 385.576 249.737C385.376 250.323 384.291 252.404 378.697 254.679C378.5 254.758 378.3 254.796 378.099 254.796Z" fill="#DB5C5D"/>
<path d="M443.61 251.428C442.328 251.428 440.165 251.04 436.767 249.383C435.974 249.001 435.647 248.049 436.032 247.257C436.413 246.468 437.371 246.144 438.157 246.525C442.347 248.565 443.906 248.224 443.925 248.224C444.737 247.884 445.602 248.282 445.946 249.09C446.29 249.898 445.85 250.853 445.039 251.199C444.829 251.288 444.377 251.428 443.61 251.428Z" fill="#DB5C5D"/>
<path d="M402.214 248.781C401.409 248.781 400.716 248.174 400.633 247.353C400.544 246.478 401.18 245.695 402.055 245.609L419.128 243.866C419.984 243.758 420.783 244.41 420.872 245.285C420.961 246.16 420.325 246.942 419.45 247.028L402.377 248.772C402.323 248.778 402.268 248.781 402.214 248.781Z" fill="#FFFCF6"/>
<path d="M378.574 108.806C378.342 108.806 378.103 108.755 377.88 108.644C368.854 104.256 363.394 97.9978 361.644 90.0403C357.762 72.3721 373.547 52.8236 374.221 51.9995C374.781 51.3186 375.78 51.22 376.458 51.7768C377.139 52.3336 377.241 53.3326 376.684 54.0135C376.528 54.2044 361.198 73.2089 364.752 89.3658C366.283 96.321 371.167 101.845 379.271 105.787C380.06 106.168 380.391 107.123 380.006 107.912C379.732 108.475 379.166 108.806 378.574 108.806Z" fill="#000C3E"/>
<path d="M414.904 113.535C414.461 113.535 414.022 113.35 413.707 112.994C413.128 112.332 413.192 111.33 413.854 110.747C414.038 110.585 432.282 94.3615 431.429 77.8388C431.064 70.7276 427.153 64.4755 419.807 59.2543C419.091 58.7484 418.922 57.7557 419.431 57.0366C419.94 56.3239 420.933 56.1553 421.649 56.6644C429.829 62.4742 434.191 69.5472 434.608 77.6861C435.531 95.7488 416.752 112.437 415.95 113.14C415.648 113.404 415.276 113.535 414.904 113.535Z" fill="#000C3E"/>
<path d="M509.534 322.421C509.073 322.421 508.614 322.224 508.299 321.833C507.746 321.155 507.848 320.153 508.529 319.596C508.739 319.424 529.665 301.947 523.604 274.298C521.268 263.639 517.173 251.911 512.837 239.496C505.318 217.965 497.542 195.699 496.909 174.114C496.883 173.233 497.577 172.504 498.455 172.476C499.279 172.504 500.065 173.141 500.091 174.019C500.711 195.114 508.401 217.144 515.84 238.446C520.209 250.956 524.335 262.77 526.712 273.614C533.2 303.22 510.765 321.88 510.536 322.065C510.24 322.304 509.887 322.421 509.534 322.421Z" fill="#000C3E"/>
<path d="M515.185 208.792C515.134 208.792 515.08 208.789 515.026 208.786C514.154 208.7 513.514 207.92 513.6 207.045C516.349 179.208 510.492 156.615 496.196 139.882C473.176 112.949 435.778 110.476 435.406 110.454C434.528 110.403 433.856 109.652 433.911 108.771C433.958 107.896 434.712 107.202 435.587 107.279C435.979 107.301 474.726 109.859 498.614 137.814C513.495 155.231 519.604 178.629 516.766 207.357C516.687 208.181 515.993 208.792 515.185 208.792Z" fill="#000C3E"/>
<path d="M401.24 295.561C401.24 295.561 417.095 284.438 431.254 293.974C431.254 293.974 414.721 300.169 401.24 295.561Z" fill="#DB5C5D"/>
<path d="M411.731 306.981C410.166 306.981 408.82 306.965 407.989 306.953C407.111 306.94 406.411 306.218 406.424 305.336C406.437 304.458 407.038 303.745 408.04 303.771C414.047 303.85 421.225 303.704 422.342 303.281C423.16 302.969 424.083 303.376 424.398 304.194C424.713 305.015 424.312 305.928 423.494 306.246C421.903 306.863 415.998 306.981 411.731 306.981Z" fill="#DB5C5D"/>
<path d="M334.567 263.444C334.424 263.444 334.28 263.425 334.137 263.384C333.291 263.148 332.798 262.273 333.033 261.424C337.386 245.824 325.83 235.779 325.712 235.677C325.044 235.111 324.961 234.105 325.531 233.434C326.097 232.766 327.102 232.683 327.774 233.256C328.315 233.714 340.994 244.739 336.097 262.283C335.9 262.983 335.264 263.444 334.567 263.444Z" fill="#DB5C5D"/>
<path d="M483.007 267.244C482.972 267.244 482.94 267.244 482.902 267.241C482.027 267.183 481.362 266.426 481.416 265.551C482.606 247.088 491.454 237.218 491.833 236.807C492.424 236.158 493.43 236.114 494.076 236.706C494.725 237.297 494.769 238.303 494.181 238.952C494.095 239.047 485.705 248.475 484.594 265.755C484.537 266.598 483.837 267.244 483.007 267.244Z" fill="#DB5C5D"/>
<path d="M451.059 319.182C451.059 319.182 456.118 375.775 449.405 384.725C442.691 393.679 400.17 386.962 388.98 384.725C377.79 382.489 377.768 288.888 380.027 295.21C398.71 347.426 449.77 301.217 451.059 319.182Z" fill="#FFCEB0"/>
<path d="M384.073 324.779C384.073 324.779 414.239 339.279 448.531 321.728C448.531 321.728 451.198 342.81 448.531 347.672C445.868 352.534 391.547 356.008 380.853 332.046C380.853 332.046 380.986 323.739 384.073 324.779" fill="#F5A473"/>
<path d="M219.336 768.117H609.709C609.709 768.117 629.649 428.715 580.749 391.807C531.845 354.896 316.573 373.334 265.891 404.862C215.209 436.389 219.336 768.117 219.336 768.117Z" fill="#FB4C47"/>
<path d="M414.239 378.018C414.239 378.018 399.193 508.482 405.76 526.64C412.324 544.798 403.915 625.306 401.242 635.77C398.566 646.235 317.461 650.68 296.531 642.309C275.602 633.938 301.864 408.286 313.579 366.538C325.297 324.788 412.951 349.386 414.239 378.018Z" fill="#05BA6E"/>
<path d="M176.056 218.173C176.056 218.173 208.685 280.665 231.552 281.244C254.422 281.823 331.541 187.908 359.976 186.941C388.414 185.977 412.834 188.735 412.946 181.958C413.057 175.178 373.393 167.777 373.393 167.777C373.393 167.777 430.754 171.43 418.889 165.156C407.027 158.881 378.602 153.24 378.602 153.24C378.602 153.24 419.828 154.904 420.127 150.494C420.426 146.084 377.205 139.59 377.205 139.59C377.205 139.59 429.799 137.91 420.181 130.675C410.559 123.44 392.452 126.58 343.476 134.061C294.496 141.541 183.689 206.929 176.056 218.173Z" fill="#FFCEB0"/>
<path d="M233.301 215.179C233.301 215.179 285.497 246.271 262.77 281.506C238.569 319.025 239.925 307.879 235.741 323.059C231.554 338.239 300.527 367.804 303.665 380.798C306.802 393.789 274.288 553.572 243.832 547.015C217.322 541.31 70.0012 457.707 48.83 374.161C32.4186 309.39 166.188 150.962 233.301 215.179Z" fill="#FB4C47"/>
<path d="M369.932 579.639C369.932 579.639 312.098 707.042 333.361 724.102C354.625 741.16 371.758 730.046 390.562 741.118C409.369 752.191 427.41 746.654 442.517 737.02C457.624 727.383 418.307 600.632 402.045 588.564C385.783 576.492 372.862 573.018 369.932 579.639Z" fill="white"/>
<path d="M562.088 382.741C562.088 382.741 593.186 386.537 617.597 431.241C635.91 464.781 671.391 660.77 617.597 688.695C563.802 716.618 513.347 702.011 493.823 683.194C474.295 664.376 509.037 567.395 532.195 560.156C555.355 552.919 562.088 382.741 562.088 382.741Z" fill="#FB4C47"/>
<path d="M572.157 379.737C572.157 379.737 573.612 370.675 528.829 351.295C493.091 335.829 462.48 361.932 407.967 364.741C353.455 367.554 358.374 345.947 319.814 355.988C260.309 371.48 307.685 410.485 326.859 414.863C346.032 419.241 410.268 527.226 572.157 379.737Z" fill="#05BA6E"/>
<path d="M415.866 270.841C415.866 270.841 415.701 274.532 417.82 274.866C419.939 275.2 423.856 274.016 422.847 269.043C422.847 269.043 417.534 270.752 415.866 270.841Z" fill="white"/>
<path d="M636.601 576.559C636.451 576.559 636.299 576.549 636.146 576.527C634.676 576.317 633.588 575.133 633.432 573.724C630.781 570.66 612.986 564.242 601.115 559.96C577.596 551.474 567.048 547.277 564.78 542.686C562.855 538.795 563.717 533.182 564.808 526.077C566.536 514.833 568.69 500.834 561.55 487.349C549.221 464.062 550.395 429.521 550.452 428.064C550.522 426.308 552.04 424.902 553.752 425.007C555.508 425.073 556.876 426.553 556.813 428.306C556.797 428.65 555.651 462.611 567.175 484.371C575.298 499.72 572.871 515.511 571.099 527.042C570.249 532.562 569.45 537.777 570.484 539.867C572.413 542.842 590.984 549.543 603.272 553.975C630.966 563.966 640.581 567.984 639.744 573.829C639.519 575.417 638.157 576.559 636.601 576.559Z" fill="#B31B1F"/>
<path d="M553.587 550.399C553.31 550.399 553.03 550.364 552.747 550.288C542.234 547.421 525.903 544.437 525.74 544.405C524.009 544.093 522.864 542.435 523.179 540.708C523.494 538.977 525.145 537.812 526.879 538.146C527.557 538.267 543.641 541.207 554.421 544.147C556.116 544.612 557.115 546.358 556.654 548.054C556.269 549.47 554.987 550.399 553.587 550.399Z" fill="#B31B1F"/>
<path d="M610.74 707.78C610.689 707.78 610.641 707.78 610.594 707.777C551.7 705.108 493.022 680.02 489.85 656.157C488.854 648.657 488.135 644.906 487.69 643.051C486.5 642.459 485.777 641.193 485.991 639.809C486.395 637.187 488.17 636.258 489.58 636.258H489.615C492.819 636.293 493.881 638.17 496.159 655.32C498.622 673.844 552.043 698.754 610.88 701.42C612.636 701.5 613.995 702.985 613.915 704.742C613.839 706.45 612.429 707.78 610.74 707.78Z" fill="#B31B1F"/>
<path d="M505.164 651.466C504.932 651.466 504.696 651.441 504.458 651.39C502.746 651.002 501.67 649.296 502.059 647.581C502.195 646.967 516.112 585.624 529.119 541.496C529.615 539.81 531.397 538.842 533.071 539.345C534.757 539.842 535.721 541.611 535.222 543.297C522.272 587.227 508.403 648.374 508.266 648.988C507.929 650.464 506.618 651.466 505.164 651.466Z" fill="#B31B1F"/>
<path d="M229.087 518.235C228.931 518.235 228.769 518.222 228.61 518.2C226.873 517.939 225.676 516.317 225.937 514.582C226.265 512.387 234.121 460.541 244.9 436.28C255.381 412.703 260.745 388.799 260.8 388.56C261.175 386.845 262.871 385.773 264.595 386.142C266.31 386.524 267.392 388.226 267.01 389.941C266.791 390.94 261.452 414.708 250.717 438.867C240.287 462.338 232.307 514.996 232.228 515.524C231.992 517.106 230.634 518.235 229.087 518.235Z" fill="#B31B1F"/>
<path d="M180.584 337.218C172.114 337.218 162.623 336.702 152.174 335.372C150.431 335.15 149.196 333.559 149.419 331.815C149.638 330.072 151.271 328.859 152.976 329.06C184.793 333.113 207.396 329.381 219.048 326.839C213.244 324.984 205.115 323.177 197.002 323.619C178.745 324.478 152.031 308.169 150.902 307.469C149.406 306.546 148.945 304.586 149.868 303.09C150.79 301.595 152.753 301.127 154.246 302.056C154.507 302.216 180.438 318.057 196.674 317.262C212.14 316.447 230.458 323.336 232.122 326.292C232.717 327.345 232.669 328.713 231.991 329.715C231.361 330.641 230.057 331.198 228.911 331.128C228.409 331.185 226.92 331.542 225.472 331.885C218.513 333.552 203.177 337.215 180.584 337.218Z" fill="#B31B1F"/>
<path d="M258.795 268.834C257.612 268.834 256.476 268.173 255.928 267.04C255.849 266.878 247.904 250.74 234.375 244.345C219.017 237.081 201.648 211.764 200.916 210.691C199.927 209.237 200.302 207.255 201.753 206.269C203.21 205.283 205.186 205.661 206.172 207.106C206.344 207.354 223.3 232.063 237.099 238.589C252.689 245.967 261.299 263.527 261.659 264.269C262.422 265.853 261.757 267.75 260.176 268.513C259.731 268.733 259.26 268.834 258.795 268.834Z" fill="#B31B1F"/>
<path d="M406.584 453.741C406.466 453.741 406.345 453.729 406.228 453.7C405.372 453.506 404.834 452.65 405.031 451.797C405.108 451.46 412.696 418.287 414.917 401.437C418.375 375.165 406.609 366.002 406.492 365.913C405.789 365.385 405.642 364.392 406.164 363.689C406.686 362.982 407.672 362.833 408.378 363.352C408.929 363.756 421.796 373.559 418.07 401.851C415.833 418.854 408.21 452.173 408.133 452.504C407.965 453.245 407.309 453.741 406.584 453.741Z" fill="#08824F"/>
<path d="M312.749 405.897L309.59 405.532C309.59 405.532 312.059 384.052 313.347 373.491C314.649 362.839 317.687 355.566 317.818 355.26C318.158 354.446 319.094 354.077 319.902 354.411C320.71 354.754 321.089 355.69 320.748 356.498C320.716 356.568 317.748 363.695 316.507 373.88C315.218 384.43 312.749 405.894 312.749 405.897Z" fill="#08824F"/>
<path d="M403.095 758.626C384.949 758.626 374.971 758.028 361.163 757.201C343.399 756.135 319.075 754.678 262.23 753.793C260.474 753.768 259.07 752.323 259.099 750.564C259.128 748.807 260.674 747.344 262.329 747.43C319.313 748.314 343.72 749.781 361.541 750.85C375.242 751.668 385.137 752.263 403.095 752.263C425.574 752.263 445.74 749.8 465.244 747.42C482.364 745.327 498.534 743.354 515.865 742.969C552.833 742.154 580.46 742.966 580.734 742.969C582.49 743.026 583.871 744.493 583.817 746.246C583.763 748.002 582.28 749.304 580.543 749.332C580.27 749.323 552.798 748.508 516.008 749.332C498.992 749.708 482.972 751.665 466.014 753.736C446.322 756.141 425.962 758.626 403.095 758.626Z" fill="#B31B1F"/>
<path d="M547.23 716.173C545.649 716.173 544.064 715.463 542.683 713.376C538.385 706.882 537.087 706.348 528.776 707.627C521.258 708.801 518.289 703.471 516.323 699.949C515.667 698.772 515.044 697.662 514.5 697.232C513.036 696.077 509.38 697.464 507.834 698.317L506.291 695.536C506.965 695.161 512.96 691.963 516.472 694.734C517.513 695.558 518.248 696.876 519.1 698.397C521 701.791 522.966 705.288 528.289 704.483C537.803 703.013 540.345 704.085 545.337 711.62C546.661 713.624 547.806 713.351 551.335 711.292C554.014 709.72 558.077 707.35 561.106 711.582L558.522 713.433C557.342 711.795 556.273 712.091 552.938 714.038C551.344 714.97 549.289 716.173 547.23 716.173Z" fill="white"/>
<path d="M510.211 566.325C510.211 566.325 434.212 538.845 401.24 552.901C368.267 566.955 341.095 603.189 346.129 605.585C351.162 607.984 378.099 587.092 378.099 587.092C378.099 587.092 350.631 614.85 355.725 617.627C360.819 620.405 387.288 605.585 387.288 605.585C387.288 605.585 368.811 625.337 376.747 626.848C384.682 628.359 401.695 612.085 419.436 611.474C437.181 610.86 459.542 624.882 481.725 628.83C503.905 632.776 510.211 566.325 510.211 566.325Z" fill="#FFCEB0"/>
<path d="M624.905 552.081C624.708 552.081 624.51 552.061 624.31 552.023C624.087 551.985 601.707 547.753 574.952 542.313C573.23 541.963 572.117 540.283 572.467 538.561C572.813 536.84 574.49 535.726 576.218 536.08C602.929 541.508 625.271 545.73 625.493 545.774C627.221 546.099 628.354 547.763 628.026 549.491C627.74 551.018 626.403 552.081 624.905 552.081Z" fill="#B31B1F"/>
<path fill-rule="evenodd" clip-rule="evenodd" d="M412.497 52.0101C411.665 52.0101 410.762 52.1067 409.784 52.2999C407.399 52.7786 405.853 53.9377 404.925 55.9492C400.789 64.9024 409.511 86.2273 415.743 98.8256C419.594 84.8498 424.209 61.4883 417.687 54.1267C416.432 52.7114 414.722 52.0101 412.497 52.0101ZM415.926 109.289C416.025 109.309 416.127 109.322 416.229 109.331C416.56 109.459 416.914 109.524 417.272 109.524C417.604 109.524 417.936 109.47 418.259 109.352C422.509 107.803 459.93 93.7681 464.591 77.596C465.713 73.7073 464.923 69.8732 462.311 66.5137C457.868 60.794 453.068 60.1137 449.822 60.5462C440.611 61.7747 431.544 73.6751 424.895 84.9805C427.247 72.1033 428.152 57.2328 422.008 50.2968C419.842 47.8485 415.76 45.2238 408.654 46.639C404.484 47.4705 401.381 49.8558 399.684 53.5303C393.407 67.1274 407.848 96.4097 412.662 105.484C406.592 106.656 400.489 106.92 394.65 106.523C382.07 105.669 370.921 101.757 364.264 97.4773L361.884 101.179C369.25 105.914 381.139 110.015 394.352 110.913C401.281 111.384 408.63 110.977 415.926 109.289ZM451.414 66.2113C451.141 66.2113 450.863 66.2281 450.586 66.2701C440.831 67.5677 429.043 88.2584 422.811 101.348C435.766 95.893 456.314 85.4742 459.044 76.0002C459.657 73.8669 459.246 71.9814 457.755 70.058C455.747 67.4753 453.669 66.2113 451.414 66.2113Z" fill="#FFD310"/>
<defs>
<linearGradient id="paint0_linear_33_791" x1="28.7386" y1="488.045" x2="56.736" y2="625.889" gradientUnits="userSpaceOnUse">
<stop stop-color="#FFC8C8"/>
<stop offset="1" stop-color="#FFF2F5"/>
</linearGradient>
<linearGradient id="paint1_linear_33_791" x1="773.235" y1="258.862" x2="324.888" y2="-95.4891" gradientUnits="userSpaceOnUse">
<stop stop-color="white"/>
<stop offset="1" stop-color="#FFD5D5"/>
</linearGradient>
<linearGradient id="paint2_linear_33_791" x1="730.531" y1="152.541" x2="578.727" y2="80.3823" gradientUnits="userSpaceOnUse">
<stop stop-color="#FFD3D3"/>
<stop offset="1" stop-color="#FFF6F6"/>
</linearGradient>
<linearGradient id="paint3_linear_33_791" x1="13.162" y1="257.933" x2="769.901" y2="469.534" gradientUnits="userSpaceOnUse">
<stop stop-color="#FFF8F5"/>
<stop offset="1" stop-color="#FFDEDE"/>
</linearGradient>
<linearGradient id="paint4_linear_33_791" x1="659.192" y1="596.695" x2="455.029" y2="560.499" gradientUnits="userSpaceOnUse">
<stop stop-color="#FFC2C2"/>
<stop offset="1" stop-color="white"/>
</linearGradient>
</defs>
</svg>
