<svg width="25" height="29" viewBox="0 0 25 29" fill="none" xmlns="http://www.w3.org/2000/svg">
<path d="M19.8922 6.15178C19.3438 6.95387 18.6809 7.63728 17.9033 8.20201C17.9115 8.31659 17.9156 8.48847 17.9156 8.71763C17.9156 9.78162 17.7601 10.8456 17.4491 11.9096C17.1381 12.9654 16.6634 13.9803 16.025 14.9542C15.3948 15.9282 14.6418 16.7917 13.7661 17.5446C12.8903 18.2894 11.8345 18.8869 10.5987 19.3371C9.36279 19.779 8.04099 20 6.63325 20C4.41524 20 2.38548 19.4066 0.543963 18.2199C0.830421 18.2526 1.14962 18.269 1.50155 18.269C3.34307 18.269 4.98407 17.7042 6.42454 16.5748C5.56517 16.5584 4.79582 16.2965 4.11651 15.7891C3.43719 15.2734 2.97067 14.6187 2.71695 13.8248C2.98704 13.8657 3.23667 13.8862 3.46584 13.8862C3.81777 13.8862 4.16561 13.8411 4.50936 13.7511C3.5927 13.5629 2.83154 13.1086 2.22588 12.3884C1.62841 11.66 1.32968 10.817 1.32968 9.85937V9.81027C1.88622 10.1213 2.4837 10.2891 3.12209 10.3136C2.58191 9.9535 2.15222 9.48289 1.83303 8.90178C1.51383 8.32068 1.35423 7.69048 1.35423 7.01116C1.35423 6.29092 1.53429 5.62388 1.89441 5.01004C2.88474 6.22954 4.08786 7.20759 5.50378 7.9442C6.92789 8.67262 8.45021 9.07775 10.0707 9.1596C10.0053 8.84859 9.97253 8.54576 9.97253 8.25112C9.97253 7.15439 10.3572 6.22135 11.1266 5.45201C11.9041 4.67448 12.8412 4.28571 13.9379 4.28571C15.0838 4.28571 16.0495 4.70312 16.8353 5.53795C17.7274 5.36607 18.5663 5.04687 19.352 4.58036C19.0492 5.52158 18.4681 6.25 17.6087 6.76562C18.3699 6.68378 19.131 6.47917 19.8922 6.15178Z" fill="#035755"/>
</svg>
