<svg width="49" height="35" viewBox="0 0 49 35" fill="none" xmlns="http://www.w3.org/2000/svg">
<rect width="49" height="35" rx="2.69231" fill="white"/>
<mask id="mask0_46_373" style="mask-type:luminance" maskUnits="userSpaceOnUse" x="0" y="0" width="49" height="35">
<rect width="49" height="35" rx="2.69231" fill="white"/>
</mask>
<g mask="url(#mask0_46_373)">
<path fill-rule="evenodd" clip-rule="evenodd" d="M49 0H0V2.33333H49V0ZM49 4.66684H0V7.00018H49V4.66684ZM0 9.33303H49V11.6664H0V9.33303ZM49 13.9999H0V16.3332H49V13.9999ZM0 18.6667H49V21H0V18.6667ZM49 23.3336H0V25.6669H49V23.3336ZM0 27.9997H49V30.3331H0V27.9997ZM49 32.6666H0V34.9999H49V32.6666Z" fill="#D02F44"/>
<rect width="21" height="16.3333" fill="#46467F"/>
<g filter="url(#filter0_d_46_373)">
<path fill-rule="evenodd" clip-rule="evenodd" d="M9.33221 3.50016C9.33221 4.14449 8.80987 4.66683 8.16554 4.66683C7.52121 4.66683 6.99887 4.14449 6.99887 3.50016C6.99887 2.85583 7.52121 2.3335 8.16554 2.3335C8.80987 2.3335 9.33221 2.85583 9.33221 3.50016ZM4.66582 3.50024C4.66582 4.14457 4.14348 4.6669 3.49915 4.6669C2.85482 4.6669 2.33248 4.14457 2.33248 3.50024C2.33248 2.85591 2.85482 2.33357 3.49915 2.33357C4.14348 2.33357 4.66582 2.85591 4.66582 3.50024ZM12.8324 4.66683C13.4767 4.66683 13.999 4.14449 13.999 3.50016C13.999 2.85583 13.4767 2.3335 12.8324 2.3335C12.188 2.3335 11.6657 2.85583 11.6657 3.50016C11.6657 4.14449 12.188 4.66683 12.8324 4.66683ZM18.6659 3.50016C18.6659 4.14449 18.1436 4.66683 17.4992 4.66683C16.8549 4.66683 16.3326 4.14449 16.3326 3.50016C16.3326 2.85583 16.8549 2.3335 17.4992 2.3335C18.1436 2.3335 18.6659 2.85583 18.6659 3.50016ZM5.8308 7.00025C6.47514 7.00025 6.99747 6.47792 6.99747 5.83358C6.99747 5.18925 6.47514 4.66692 5.8308 4.66692C5.18647 4.66692 4.66414 5.18925 4.66414 5.83358C4.66414 6.47792 5.18647 7.00025 5.8308 7.00025ZM11.6643 5.83358C11.6643 6.47792 11.142 7.00025 10.4976 7.00025C9.85331 7.00025 9.33098 6.47792 9.33098 5.83358C9.33098 5.18925 9.85331 4.66692 10.4976 4.66692C11.142 4.66692 11.6643 5.18925 11.6643 5.83358ZM15.1645 7.00025C15.8088 7.00025 16.3312 6.47792 16.3312 5.83358C16.3312 5.18925 15.8088 4.66692 15.1645 4.66692C14.5202 4.66692 13.9978 5.18925 13.9978 5.83358C13.9978 6.47792 14.5202 7.00025 15.1645 7.00025ZM18.6659 8.167C18.6659 8.81134 18.1436 9.33367 17.4992 9.33367C16.8549 9.33367 16.3326 8.81134 16.3326 8.167C16.3326 7.52267 16.8549 7.00034 17.4992 7.00034C18.1436 7.00034 18.6659 7.52267 18.6659 8.167ZM12.8324 9.33367C13.4767 9.33367 13.999 8.81134 13.999 8.167C13.999 7.52267 13.4767 7.00034 12.8324 7.00034C12.188 7.00034 11.6657 7.52267 11.6657 8.167C11.6657 8.81134 12.188 9.33367 12.8324 9.33367ZM9.33221 8.167C9.33221 8.81134 8.80987 9.33367 8.16554 9.33367C7.52121 9.33367 6.99887 8.81134 6.99887 8.167C6.99887 7.52267 7.52121 7.00034 8.16554 7.00034C8.80987 7.00034 9.33221 7.52267 9.33221 8.167ZM3.4987 9.33367C4.14303 9.33367 4.66536 8.81134 4.66536 8.167C4.66536 7.52267 4.14303 7.00034 3.4987 7.00034C2.85437 7.00034 2.33203 7.52267 2.33203 8.167C2.33203 8.81134 2.85437 9.33367 3.4987 9.33367ZM6.99747 10.5004C6.99747 11.1448 6.47514 11.6671 5.8308 11.6671C5.18647 11.6671 4.66414 11.1448 4.66414 10.5004C4.66414 9.85609 5.18647 9.33376 5.8308 9.33376C6.47514 9.33376 6.99747 9.85609 6.99747 10.5004ZM10.4976 11.6671C11.142 11.6671 11.6643 11.1448 11.6643 10.5004C11.6643 9.85609 11.142 9.33376 10.4976 9.33376C9.85331 9.33376 9.33098 9.85609 9.33098 10.5004C9.33098 11.1448 9.85331 11.6671 10.4976 11.6671ZM16.3312 10.5004C16.3312 11.1448 15.8088 11.6671 15.1645 11.6671C14.5202 11.6671 13.9978 11.1448 13.9978 10.5004C13.9978 9.85609 14.5202 9.33376 15.1645 9.33376C15.8088 9.33376 16.3312 9.85609 16.3312 10.5004ZM17.4992 13.9999C18.1436 13.9999 18.6659 13.4775 18.6659 12.8332C18.6659 12.1889 18.1436 11.6665 17.4992 11.6665C16.8549 11.6665 16.3326 12.1889 16.3326 12.8332C16.3326 13.4775 16.8549 13.9999 17.4992 13.9999ZM13.999 12.8332C13.999 13.4775 13.4767 13.9999 12.8324 13.9999C12.188 13.9999 11.6657 13.4775 11.6657 12.8332C11.6657 12.1889 12.188 11.6665 12.8324 11.6665C13.4767 11.6665 13.999 12.1889 13.999 12.8332ZM8.16554 13.9999C8.80987 13.9999 9.33221 13.4775 9.33221 12.8332C9.33221 12.1889 8.80987 11.6665 8.16554 11.6665C7.52121 11.6665 6.99887 12.1889 6.99887 12.8332C6.99887 13.4775 7.52121 13.9999 8.16554 13.9999ZM4.66536 12.8332C4.66536 13.4775 4.14303 13.9999 3.4987 13.9999C2.85437 13.9999 2.33203 13.4775 2.33203 12.8332C2.33203 12.1889 2.85437 11.6665 3.4987 11.6665C4.14303 11.6665 4.66536 12.1889 4.66536 12.8332Z" fill="url(#paint0_linear_46_373)"/>
</g>
</g>
<defs>
<filter id="filter0_d_46_373" x="2.33203" y="2.3335" width="16.3337" height="13.0124" filterUnits="userSpaceOnUse" color-interpolation-filters="sRGB">
<feFlood flood-opacity="0" result="BackgroundImageFix"/>
<feColorMatrix in="SourceAlpha" type="matrix" values="0 0 0 0 0 0 0 0 0 0 0 0 0 0 0 0 0 0 127 0" result="hardAlpha"/>
<feOffset dy="1.34615"/>
<feColorMatrix type="matrix" values="0 0 0 0 0 0 0 0 0 0 0 0 0 0 0 0 0 0 0.06 0"/>
<feBlend mode="normal" in2="BackgroundImageFix" result="effect1_dropShadow_46_373"/>
<feBlend mode="normal" in="SourceGraphic" in2="effect1_dropShadow_46_373" result="shape"/>
</filter>
<linearGradient id="paint0_linear_46_373" x1="2.33203" y1="2.3335" x2="2.33203" y2="13.9999" gradientUnits="userSpaceOnUse">
<stop stop-color="white"/>
<stop offset="1" stop-color="#F0F0F0"/>
</linearGradient>
</defs>
</svg>
